<svg width="300" height="70" viewBox="0 0 300 70" fill="none" xmlns="http://www.w3.org/2000/svg">
<g clip-path="url(#clip0)">
<path d="M0 68.4211H16.6779V43.0511H37.4555V28.7095H16.6779V14.3423H41.7447V0.000578847H0V68.4211Z" fill="#299540"/>
<path d="M47.4341 68.4211H63.9223V19.1557H47.4341V68.4211ZM47.6236 12.9155H63.733V0.000578847H47.6236V12.9155" fill="#299540"/>
<path d="M73.3171 68.4211H89.8055V49.2851C89.8031 46.2707 90.2958 43.6564 91.2823 41.4428C92.2665 39.2283 93.7601 37.5147 95.7636 36.3022C97.7665 35.0867 100.291 34.4705 103.338 34.4535C103.944 34.4535 104.57 34.4773 105.222 34.5262C105.872 34.5732 106.358 34.6459 106.675 34.7402V18.4817C106.388 18.4327 106.08 18.3898 105.757 18.3514C105.435 18.3127 105.105 18.2934 104.768 18.2934C102.305 18.3194 100.023 18.8819 97.9219 19.977C95.8205 21.0747 94.0099 22.5419 92.4904 24.3844C90.9732 26.2262 89.8567 28.2751 89.1384 30.5344H88.9467C88.9554 30.5085 88.987 30.2004 89.0423 29.6124C89.0981 29.024 89.1298 28.3118 89.1384 27.4733V19.1557H73.3171V68.4211Z" fill="#299540"/>
<path d="M108.529 62.296C110.355 63.9214 112.364 65.2714 114.561 66.3479C116.758 67.4238 119.045 68.2303 121.42 68.7648C123.796 69.2977 126.166 69.5652 128.533 69.5652C132.742 69.5352 136.353 68.8185 139.362 67.415C142.37 66.0097 144.68 64.0948 146.291 61.6738C147.902 59.248 148.716 56.4925 148.731 53.4013C148.697 50.757 148.13 48.5364 147.031 46.7393C145.931 44.9426 144.514 43.4601 142.777 42.292C141.041 41.1217 139.197 40.159 137.248 39.3994C135.3 38.6422 133.457 37.9767 131.719 37.4098C129.984 36.841 128.567 36.2593 127.468 35.6622C126.368 35.0652 125.802 34.3468 125.765 33.506C125.735 32.8191 126.057 32.2522 126.733 31.8075C127.406 31.3601 128.612 31.1292 130.347 31.1141C131.768 31.1209 133.249 31.2978 134.787 31.6443C136.328 31.9932 137.791 32.4659 139.183 33.0692C140.574 33.6726 141.759 34.3592 142.733 35.1318L148.35 23.6524C145.848 21.6604 143.093 20.2188 140.088 19.3265C137.084 18.435 133.996 17.9959 130.824 18.0113C127.971 18.0136 125.313 18.3492 122.852 19.0229C120.394 19.6926 118.232 20.6869 116.377 22.0054C114.519 23.3206 113.067 24.9484 112.026 26.8891C110.982 28.8251 110.453 31.0626 110.436 33.5997C110.47 36.2762 111.037 38.5266 112.136 40.3493C113.236 42.1742 114.653 43.6824 116.39 44.8737C118.124 46.0655 119.967 47.0519 121.917 47.8306C123.867 48.6091 125.709 49.2892 127.446 49.8753C129.183 50.4618 130.6 51.0606 131.7 51.6728C132.799 52.2867 133.364 53.0225 133.4 53.8802C133.424 54.6567 133.093 55.2792 132.411 55.7458C131.729 56.2119 130.564 56.4496 128.916 56.4624C126.543 56.4473 124.188 56.0001 121.851 55.1235C119.515 54.2459 117.425 53.0349 115.577 51.4881L108.529 62.296Z" fill="#299540"/>
<path d="M158.335 50.2304C158.362 53.5252 158.91 56.2891 159.973 58.5264C161.034 60.7625 162.435 62.57 164.169 63.9476C165.904 65.3252 167.793 66.3716 169.842 67.088C171.889 67.8022 173.913 68.2859 175.914 68.5366C177.915 68.7863 179.711 68.9041 181.305 68.887C182.246 68.8804 183.078 68.8463 183.794 68.7782C184.512 68.7136 185.174 68.654 185.784 68.6003V54.2482C185.27 54.2951 184.844 54.3233 184.508 54.3317C184.173 54.3425 183.868 54.3463 183.591 54.3448C182.786 54.3554 181.887 54.2865 180.896 54.1391C179.905 53.9892 178.948 53.7003 178.028 53.2686C177.107 52.8363 176.349 52.1987 175.752 51.3579C175.153 50.5153 174.844 49.405 174.823 48.0292V32.9112H185.117V19.9985H174.823V5.84074H158.81V19.9985H152.045V32.9112H158.335V50.2304Z" fill="#299540"/>
<path d="M211.294 31.0243V14.3423H216.92C218.296 14.3382 219.5 14.4149 220.531 14.5691C221.56 14.7208 222.453 14.9668 223.209 15.3009C224.755 15.934 225.814 16.8707 226.391 18.116C226.97 19.3608 227.243 20.8501 227.214 22.587C227.185 25.3272 226.408 27.4173 224.878 28.8529C223.35 30.2907 221.237 31.0134 218.539 31.0243H211.294ZM194.617 68.4211H211.294V45.364H219.112L231.217 68.4211H249.798L236.551 44.504C235.735 43.077 235.106 42.0331 234.659 41.3715C234.211 40.7109 233.985 40.3835 233.979 40.3921V40.2019C236.235 39.0231 238.117 37.438 239.628 35.4505C241.138 33.4631 242.274 31.2594 243.035 28.8465C243.793 26.4291 244.173 23.9927 244.175 21.53C244.16 18.2059 243.646 15.2282 242.628 12.6009C241.609 9.97627 240.162 7.73833 238.288 5.89042C236.413 4.04194 234.181 2.62104 231.599 1.62659C230.633 1.2458 229.566 0.933196 228.396 0.693973C227.226 0.454173 225.835 0.278513 224.22 0.167569C222.606 0.0560472 220.648 -0.00173689 218.349 0.000574436H194.617V68.4211Z" fill="#100F0D"/>
<path d="M267.313 68.4211H249.203L281.417 19.1557H300.002L267.313 68.4211Z" fill="#100F0D"/>
<path d="M281.892 68.4211H300.002L267.788 19.1557H249.203L281.892 68.4211Z" fill="#100F0D"/>
</g>
<defs>
<clipPath id="clip0">
<rect width="300" height="69.5652" fill="white"/>
</clipPath>
</defs>
</svg>
