<?xml version="1.0" encoding="UTF-8"?>
<svg width="37px" height="33px" viewBox="0 0 37 33" version="1.1" xmlns="http://www.w3.org/2000/svg" xmlns:xlink="http://www.w3.org/1999/xlink">
    <title>amount-icon</title>
    <g id="Page-1" stroke="none" stroke-width="1" fill="none" fill-rule="evenodd">
        <g id="Mass-Lottery-Exec-Dashboard" transform="translate(-619.000000, -195.000000)" fill="#FFFFFF" fill-rule="nonzero">
            <g id="amount-cashed" transform="translate(438.000000, 174.000000)">
                <path d="M205.287836,27.8922601 C205.457299,27.8060282 205.659829,27.8060282 205.829292,27.8922601 L205.829292,27.8922601 L216.947736,33.353615 C217.158532,33.456272 217.286663,33.6615861 217.286663,33.8915379 C217.290796,34.1214897 217.166798,34.33091 216.960136,34.4376734 L216.960136,34.4376734 L209.822012,38.1251145 L209.822012,39.254342 L216.517878,35.7927464 C216.819605,35.6367077 217.191598,35.7557898 217.344528,36.0473359 C217.501592,36.3470944 217.381727,36.7125535 217.084133,36.8685922 L217.084133,36.8685922 L209.822012,40.6258401 L209.822012,41.8248744 L216.517878,38.3591725 C216.819605,38.1990275 217.191598,38.3181097 217.344528,38.613762 C217.501592,38.9135206 217.381727,39.2789797 217.084133,39.4350184 L217.084133,39.4350184 L209.822012,43.18816 L209.822012,44.3091749 L216.517878,40.843473 C216.819605,40.6874343 217.191598,40.8065165 217.344528,41.1062751 C217.501592,41.4019274 217.381727,41.7714927 217.084133,41.9234251 L217.084133,41.9234251 L202.485492,49.4748774 L193.863532,53.9260869 C193.776733,53.9753623 193.677535,54 193.582471,54 C193.491539,54 193.400608,53.9794686 193.317943,53.9342995 L193.317943,53.9342995 L181.343916,48.1608672 C181.038055,48.0171474 180.914058,47.6516883 181.062855,47.3519297 C181.207518,47.0480649 181.575378,46.9207701 181.872972,47.0685963 L181.872972,47.0685963 L193.570071,52.7065212 L201.588577,48.5591766 L201.588577,47.4463742 L193.863532,51.4417864 C193.776733,51.4910618 193.677535,51.5156995 193.582471,51.5156995 C193.491539,51.5156995 193.400608,51.4910618 193.317943,51.449999 L193.317943,51.449999 L181.343916,45.6765667 C181.038055,45.5328469 180.914058,45.1632815 181.062855,44.8676292 C181.207518,44.5596581 181.575378,44.4323633 181.872972,44.5801895 L181.872972,44.5801895 L193.570071,50.2222207 L201.588577,46.0748761 L201.588577,44.8799481 L193.863532,48.8794666 C193.776733,48.9246357 193.677535,48.9492734 193.582471,48.9492734 C193.491539,48.9492734 193.400608,48.9287419 193.317943,48.8876791 L193.317943,48.8876791 L181.343916,43.1101406 C181.038055,42.9664207 180.918191,42.6050679 181.062855,42.3012031 C181.207518,41.9973382 181.575378,41.8741498 181.872972,42.0178696 L181.872972,42.0178696 L193.570071,47.6599009 L201.588577,43.5125562 L201.588577,42.3833287 L193.863532,46.3828472 C193.776733,46.4280163 193.677535,46.452654 193.582471,46.452654 C193.491539,46.452654 193.400608,46.4321226 193.317943,46.3910598 L193.317943,46.3910598 L181.343916,40.6135212 C181.13312,40.5108642 181.000856,40.3014438 181.000856,40.0673858 C181.000856,39.8333277 181.13312,39.619801 181.343916,39.517144 L181.343916,39.517144 L186.577,36.976 L186.509338,36.9643196 C185.205118,36.6499472 184.368774,36.2562736 183.959599,35.768496 L183.878442,35.6625265 C183.669063,35.3530092 183.746442,34.9388023 184.051407,34.7248713 C184.356373,34.5109403 184.775132,34.5883196 184.989063,34.8932851 C184.998166,34.911492 185.266718,35.2756299 186.827959,35.653423 C187.187545,35.7399058 187.41058,36.1040437 187.324097,36.4681816 C187.30757,36.5342884 187.282115,36.5956196 187.249329,36.6511996 Z M208.59857,38.7615881 L204.353722,40.9543426 L204.353722,40.9543426 L204.337189,40.9625552 L202.816152,41.7550676 L202.816152,47.9309155 L208.59857,44.937436 L208.59857,38.7615881 Z M190.589997,36.384051 L183.009616,40.0632795 L193.574204,45.1632815 L200.844592,41.3978211 L190.589997,36.384051 Z M197.77772,32.8896051 L191.978769,35.7065145 L202.196165,40.7038594 L207.817385,37.7966119 L197.77772,32.8896051 Z M199.49227,35.5743057 C200.89868,34.9896133 202.220286,34.9542572 202.444162,35.495338 C202.668038,36.0364188 201.709405,36.9490402 200.302997,37.5337374 C198.896588,38.1184297 197.574981,38.1537858 197.351105,37.6127051 C197.12723,37.0716243 198.085862,36.1590029 199.49227,35.5743057 Z M205.552364,29.1159321 L199.170625,32.2120686 L209.160692,37.098544 L215.323368,33.9120693 L205.552364,29.1159321 Z M183.61305,32.0267794 C183.927933,31.8492622 184.317163,31.967607 184.492098,32.2953311 C184.658286,32.6094001 185.69915,33.3285725 188.415016,33.7518828 C188.76926,33.8065035 189.014169,34.1524346 188.957315,34.5165725 C188.909208,34.8534001 188.633685,35.0900897 188.318802,35.0900897 C188.288188,35.0900897 188.257575,35.0900897 188.222588,35.085538 C186.363903,34.7942277 184.011027,34.1842966 183.35502,32.941676 C183.184459,32.6139518 183.298166,32.2042966 183.61305,32.0267794 Z M183.633184,29.4908996 C183.940425,29.336141 184.296825,29.4908996 184.440204,29.8231755 C184.862148,30.8609686 187.782986,31.976141 191.777118,31.976141 C192.108938,31.976141 192.37931,32.2765548 192.37931,32.6497962 C192.37931,33.0230376 192.108938,33.3280031 191.773022,33.3280031 C188.282764,33.3280031 184.153446,32.4040031 183.33004,30.3830376 C183.190757,30.0416583 183.33004,29.6456583 183.633184,29.4908996 Z M183.63484,27.2149954 C183.943505,27.0602367 184.301557,27.2149954 184.441485,27.551823 C184.865384,28.5850643 187.799759,29.7002367 191.812403,29.7002367 C195.825046,29.7002367 198.759421,28.5850643 199.179205,27.5563747 C199.319133,27.2149954 199.677184,27.0647885 199.985849,27.2149954 C200.290399,27.3652023 200.430327,27.765754 200.290399,28.1071333 C199.471408,30.1280988 195.318836,31.0520988 191.812403,31.0520988 C188.305969,31.0520988 184.157513,30.1280988 183.330291,28.1071333 C183.190363,27.7703057 183.330291,27.369754 183.63484,27.2149954 Z M191.81238,21 C196.677015,21 200.344828,22.7137931 200.344828,24.9827586 C200.344828,27.2517241 196.672944,28.9655172 191.81238,28.9655172 C186.947745,28.9655172 183.275862,27.2517241 183.275862,24.9827586 C183.275862,22.7137931 186.947745,21 191.81238,21 Z M191.81238,22.1908046 C187.493236,22.1908046 184.484897,23.6632184 184.484897,24.9827586 C184.484897,26.3022989 187.493236,27.7747126 191.81238,27.7747126 C196.131525,27.7747126 199.139864,26.3022989 199.139864,24.9827586 C199.139864,23.6632184 196.131525,22.1908046 191.81238,22.1908046 Z" id="amount-icon"></path>
            </g>
        </g>
    </g>
</svg>