<?xml version="1.0" encoding="UTF-8"?>
<svg width="21px" height="21px" viewBox="0 0 21 21" version="1.1" xmlns="http://www.w3.org/2000/svg" xmlns:xlink="http://www.w3.org/1999/xlink">
    <title>app-errors-icon</title>
    <g id="Page-1" stroke="none" stroke-width="1" fill="none" fill-rule="evenodd">
        <g id="Mass-Lottery-System-Dashboard" transform="translate(-639.000000, -189.000000)" stroke="#FFFFFF">
            <g id="player-sessions-copy-7" transform="translate(523.000000, 179.000000)">
                <g id="app-errors-icon" transform="translate(117.000000, 10.000000)">
                    <path d="M1.27464876,20 C0.835820055,20 0.431122469,19.7227801 0.201956366,19.2871489 C-0.0564649844,18.7949422 -0.0564649844,18.2065571 0.158073495,17.6917202 L3.00070835,12.2944188 C3.32251607,11.7456366 3.74184128,11.3043478 4.35132559,11.3043478 C4.96080991,11.3043478 5.38013512,11.7456366 5.70194284,12.2944188 L8.52995007,17.6634324 C8.76399205,18.1669543 8.7542403,18.8005997 8.49581895,19.2871489 C8.26665284,19.7227801 7.86683113,20 7.42312655,20 L1.27464876,20 Z M4.35132559,17.1825408 C4.60974694,17.1825408 4.81453367,17.4258154 4.81453367,17.7256655 C4.81453367,18.0255155 4.60974694,18.2631326 4.35132559,18.2631326 C4.09290424,18.2631326 3.88324164,18.0255155 3.88324164,17.7256655 C3.88324164,17.4258154 4.09290424,17.1825408 4.35132559,17.1825408 Z M4.35132559,16.6450737 C4.18066999,16.6450737 4.05877312,16.4810048 4.03926962,16.2829906 L3.88324164,14.6592741 C3.85886227,14.3820543 4.11240774,14.121807 4.35132559,14.121807 C4.59024345,14.121807 4.84378892,14.3820543 4.81453367,14.6592741 L4.65850569,16.2829906 C4.64387807,16.4753472 4.52685708,16.6450737 4.35132559,16.6450737 Z M1.27464876,19.2814913 L7.42312655,19.2814913 C7.65229265,19.2814913 7.84732763,19.1343951 7.9692245,18.9080931 C8.11062486,18.6365308 8.10574898,18.308393 7.99360387,18.0255155 L5.18510014,12.6961048 C4.98518928,12.3566519 4.73651968,12.0228565 4.35132559,12.0228565 C3.96613151,12.0228565 3.71258603,12.3566519 3.51267517,12.6961048 L0.709047317,18.0255155 C0.592026329,18.3140505 0.587150454,18.6365308 0.73342669,18.9080931 C0.850447679,19.1343951 1.04548266,19.2814913 1.27464876,19.2814913 Z" id="Shape" stroke-width="0.2" fill="#FFFFFF" fill-rule="nonzero"></path>
                    <rect id="Rectangle" x="0.5" y="0.5" width="7.69565217" height="7.69565217" rx="2"></rect>
                    <rect id="Rectangle-Copy" x="11.8043478" y="0.5" width="7.69565217" height="7.69565217" rx="2"></rect>
                    <rect id="Rectangle-Copy-6" x="11.8043478" y="11.8043478" width="7.69565217" height="7.69565217" rx="2"></rect>
                </g>
            </g>
        </g>
    </g>
</svg>