<?xml version="1.0" encoding="UTF-8"?>
<svg width="30px" height="35px" viewBox="0 0 11 14" version="1.1" xmlns="http://www.w3.org/2000/svg" xmlns:xlink="http://www.w3.org/1999/xlink">
    <title>arrow_icon</title>
    <g id="Page-1" stroke="none" stroke-width="1" fill="none" fill-rule="evenodd">
        <g id="Mass-Lottery-Exec-Dashboard" transform="translate(-254.000000, -393.000000)" fill="#FFFFFF" fill-rule="nonzero">
            <g id="up-time" transform="translate(185.000000, 354.000000)">
                <path d="M73.9840347,39.2031745 L69.234038,43.7031514 C68.9806182,43.9557263 68.8933908,44.4974584 69.1739206,44.7928632 C69.4544479,45.088268 69.98681,45.0864255 70.2652873,44.7890882 L73.7496599,41.4922255 L73.7496599,52.2500005 C73.7496599,52.6642002 74.0854597,53 74.4996594,53 C74.9138841,53 75.2496589,52.6642002 75.2496589,52.2500005 L75.2496589,41.4922255 L78.7340314,44.7890857 C79.0125087,45.0864255 79.5649434,45.1061105 79.8253982,44.7928607 C80.066098,44.5033709 80.076603,43.9659038 79.7652807,43.7031489 L75.015284,39.203172 C74.8235241,39.0119572 74.3189145,38.8626898 73.9840347,39.2031745 L73.9840347,39.2031745 Z" id="arrow_icon"></path>
            </g>
        </g>
    </g>
</svg>