<?xml version="1.0" encoding="UTF-8"?>
<svg width="19px" height="22px" viewBox="0 0 19 22" version="1.1" xmlns="http://www.w3.org/2000/svg" xmlns:xlink="http://www.w3.org/1999/xlink">
    <title>crashes-icon</title>
    <g id="Page-1" stroke="none" stroke-width="1" fill="none" fill-rule="evenodd">
        <g id="Mass-Lottery-System-Dashboard" transform="translate(-472.000000, -188.000000)" fill-rule="nonzero" stroke="#FFFFFF">
            <g id="player-sessions-copy-6" transform="translate(354.000000, 179.000000)">
                <path d="M133.521455,17.9175016 L132.813238,17.0841739 L133.219457,19.080827 C133.219457,19.0821603 133.244568,19.5639348 133.244568,19.5639348 C133.244568,20.6154832 132.852571,21.5552546 132.111687,22.2825829 C132.088576,22.3056939 132.052354,22.3101383 132.024577,22.2930273 C132.005243,22.2805829 131.990799,22.2568053 131.990799,22.2319166 C132.118576,21.7908085 132.179242,21.4003667 132.179242,21.0199249 C132.179242,19.3726028 131.04325,18.2599437 129.728814,16.971508 C129.73237,16.9757302 128.499489,15.7141833 128.499489,15.7141833 C127.604384,14.7195234 127.14661,13.6668639 127.14661,12.5924268 C127.14661,11.835543 127.396164,11.2259916 127.585496,10.8328832 L127.985271,10 L127.188165,10.4688857 C124.765959,11.8937649 122.160866,13.8150851 121.93109,18.6021636 C121.929534,18.6334967 121.907979,18.6594965 121.878646,18.667052 L121.878646,18.667052 C121.847535,18.6748297 121.815535,18.6619409 121.800868,18.6363856 C121.124429,17.4872823 120.4331,17.3750608 119.600217,17.3479499 L119.072665,17.3310611 L119.351996,17.7790581 C119.677772,18.301499 119.836882,18.8237176 119.836882,19.3757139 C119.836882,20.0468204 119.612439,20.6994826 119.375774,21.3908112 C119.093331,22.2110279 118.802,23.0590221 118.802,24.0856817 L118.817778,24.5041233 C119.350663,28.9943149 123.905076,30.0976408 125.504399,29.9934192 L125.576176,29.4272009 C123.560634,28.6538728 122.347754,27.5781024 121.969756,26.2278894 C121.885979,25.9292247 121.84309,25.6154491 121.84309,25.2956735 C121.84309,23.8325724 122.723973,22.6205806 122.824195,22.4865815 C122.840417,22.4656928 122.872417,22.4561373 122.90175,22.4643595 C122.926416,22.4723594 122.947305,22.4979148 122.950638,22.5279146 C122.950638,22.5336923 123.097304,24.123237 124.866181,25.7063374 L125.392844,26.1774453 L125.2764,24.7747882 C125.2764,23.8545722 125.620176,23.4065753 125.984395,22.9323563 C126.355504,22.446804 126.776835,21.8965856 126.776835,20.6899271 C126.776835,20.1899305 126.706835,19.6186011 126.561947,18.9426057 C126.561947,18.9041615 126.574391,18.8817172 126.595947,18.8677173 C126.619502,18.8528285 126.65128,18.8546063 126.674835,18.8721617 C128.988375,20.6532607 129.473261,22.7354687 129.473261,24.1681256 C129.473261,24.6252336 129.42615,25.0701195 129.33015,25.4923388 L129.24904,25.8556697 L129.621037,25.8354476 C130.261922,25.8003367 131.188582,25.4538946 131.96591,24.004349 C131.97991,23.977238 132.008577,23.9636826 132.037021,23.9672381 C132.06591,23.9714603 132.088798,23.9932379 132.095909,24.0212377 C132.095909,24.0239044 132.127465,24.50279 132.127465,24.50279 C132.127465,25.4403392 131.7908,27.7829899 128.663488,29.2812019 L128.773488,29.8174204 C129.525482,29.8489758 130.347699,29.6927546 131.152138,29.3660902 C134.646114,27.8607671 135.479664,25.4201171 135.56433,23.6376848 C135.56433,23.6363515 135.572775,23.3081315 135.572775,23.3081315 C135.572775,21.4450331 134.805669,19.4301579 133.521455,17.9175016 Z" id="crashes-icon"></path>
            </g>
        </g>
    </g>
</svg>