<?xml version="1.0" encoding="UTF-8"?>
<svg width="14px" height="15px" viewBox="0 0 14 15" version="1.1" xmlns="http://www.w3.org/2000/svg" xmlns:xlink="http://www.w3.org/1999/xlink">
    <title>dashboard-icon</title>
    <g id="Page-1" stroke="none" stroke-width="1" fill="none" fill-rule="evenodd">
        <g id="Mass-Lottery-Exec-Homepage" transform="translate(-17.000000, -178.000000)" fill="#FFFFFF" fill-rule="nonzero">
            <g id="left" transform="translate(-51.000000, 86.000000)">
                <g id="kb" transform="translate(68.000000, 90.500000)">
                    <g id="dashboard-icon" transform="translate(0.000000, 2.000000)">
                        <rect id="Rectangle" x="0.5" y="0.161617647" width="6.34906863" height="6.34906863" rx="1"></rect>
                        <path d="M12.4527941,0.113921569 L9.00563725,0.113921569 C8.17811761,0.114488492 7.50726266,0.7848829 7.50612745,1.61240196 L7.50612745,5.0602451 C7.50726266,5.88776416 8.17811761,6.55815857 9.00563725,6.55872549 L12.4527941,6.55872549 C13.2803138,6.55815857 13.9511687,5.88776416 13.9523039,5.0602451 L13.9523039,1.6127451 C13.9513578,0.785092018 13.2804475,0.114488821 12.4527941,0.113921569 Z M12.9132843,5.06058824 C12.9127167,5.31450785 12.7067144,5.52005017 12.4527941,5.52005017 L9.00563725,5.52005017 C8.88344823,5.52032231 8.76616017,5.47202137 8.67959852,5.38578151 C8.59303686,5.29954165 8.54429944,5.1824343 8.54411765,5.0602451 L8.54411765,1.6127451 C8.54468528,1.35882549 8.7506876,1.15328431 9.00460784,1.15328431 L12.4527941,1.15328431 C12.7065804,1.15347279 12.9123739,1.35895937 12.9129412,1.6127451 L12.9132843,5.06058824 Z" id="Shape"></path>
                        <rect id="Rectangle" x="7.55073529" y="7.48828431" width="6.34906863" height="6.34906863" rx="1"></rect>
                        <path d="M5.44666667,7.4402451 L1.99848039,7.4402451 C1.17096133,7.44138031 0.500566923,8.11223526 0.5,8.9397549 L0.5,12.3872549 C0.500566923,13.2147745 1.17096133,13.8856295 1.99848039,13.8867647 L5.44666667,13.8867647 C6.27418573,13.8856295 6.94458014,13.2147745 6.94514706,12.3872549 L6.94514706,8.9397549 C6.94458014,8.11223526 6.27418573,7.44138031 5.44666667,7.4402451 L5.44666667,7.4402451 Z M5.90612745,12.3872549 C5.90612745,12.6411751 5.70058628,12.8471775 5.44666667,12.8477451 L1.99848039,12.8477451 C1.74469486,12.8469887 1.53936275,12.6410416 1.53936275,12.3872549 L1.53936275,8.9397549 C1.53936275,8.68583466 1.74490392,8.47983234 1.99882353,8.47926471 L5.44666667,8.47926471 C5.70058628,8.47983234 5.90612745,8.68583466 5.90612745,8.9397549 L5.90612745,12.3872549 Z" id="Shape"></path>
                    </g>
                </g>
            </g>
        </g>
    </g>
</svg>