<?xml version="1.0" encoding="UTF-8"?>
<svg width="52px" height="49px" viewBox="0 0 52 49" version="1.1" xmlns="http://www.w3.org/2000/svg" xmlns:xlink="http://www.w3.org/1999/xlink">
    <title>new_players_icon</title>
    <g id="Page-1" stroke="none" stroke-width="1" fill="none" fill-rule="evenodd">
        <g id="Mass-Lottery-Exec-Dashboard" transform="translate(-659.000000, -379.000000)">
            <g id="new-players" transform="translate(606.000000, 354.000000)">
                <g id="new_players_icon" transform="translate(53.000000, 25.000000)">
                    <path d="M20.8100611,45.5827664 C32.3042402,45.5827664 41.6190476,41.2012029 41.6190476,35.7937473 C41.6190476,31.8112625 36.5645616,25.9678961 29.310397,23.1619748 C27.0417101,25.9217586 24.0684563,27.8732435 20.8100611,27.8732435 C17.552062,27.8732435 14.5786385,25.9217586 12.3082546,23.1619748 C5.05590017,25.9678961 0,31.8112625 0,35.7937473 C0,41.2012029 9.31622155,45.5827664 20.8100611,45.5827664 L20.8100611,45.5827664 Z M3.02619816,33.585051 C3.5142928,32.6279196 4.25828487,31.6048693 5.17774003,30.6266194 C6.92060394,28.7722017 9.18883827,27.1573313 11.6777873,25.9829968 C12.7129733,27.0272769 13.8196002,27.8935264 14.9825087,28.5687059 C16.8623151,29.6601267 18.8229521,30.2135545 20.8100611,30.2135545 C24.0310106,30.2135545 27.2216417,28.7240581 29.9408078,25.9829968 C32.430379,27.1571084 34.6988397,28.7720345 36.4417601,30.6265636 C37.3610456,31.6047579 38.1049812,32.6277525 38.5929626,33.5848839 C39.1304947,34.639194 39.2433407,35.3680337 39.2433407,35.7937473 C39.2433407,36.5267662 38.8941683,37.2868656 38.2054396,38.0529832 C37.3814653,38.969605 36.1005067,39.8517907 34.501147,40.604145 C32.7662587,41.4202449 30.7271103,42.0647219 28.4403227,42.5196338 C26.0293196,42.9992303 23.4621421,43.2424555 20.8100611,43.2424555 C18.158037,43.2424555 15.5908028,42.9992303 13.1797432,42.5196338 C10.8928424,42.0647219 8.85352433,41.4202449 7.11846635,40.604145 C5.51899343,39.8517351 4.23780868,38.9695492 3.41372121,38.0528718 C2.72499245,37.28681 2.37570695,36.5267104 2.37570695,35.7937473 C2.37570695,35.3680893 2.48855295,34.6393053 3.02619816,33.585051 Z M20.8093829,24.6443412 C26.9978672,24.6443412 32.014652,16.5270292 32.014652,10.6476097 C32.014652,4.76774446 26.9978672,-1.55642694e-14 20.8093829,-1.55642694e-14 C14.6211805,-1.55642694e-14 9.6043956,4.7663516 9.6043956,10.6476097 C9.6043956,16.5287008 14.6211805,24.6443412 20.8093829,24.6443412 Z M11.9719204,10.6476097 C11.9719204,8.44587792 12.8794152,6.37101488 14.5270433,4.80540954 C16.2000941,3.21562273 18.4312043,2.34013399 20.8093829,2.34013399 C23.1874488,2.34013399 25.4186718,3.21584564 27.0918916,4.80585518 C28.7396324,6.37168343 29.6471273,8.44632375 29.6471273,10.6476097 C29.6471273,11.8256444 29.3892925,13.1702185 28.9015262,14.5360767 C28.4016965,15.9358111 27.6805598,17.2985491 26.8160187,18.4770852 C25.936314,19.6762368 24.9244228,20.6580901 23.8896454,21.316392 C22.8592647,21.9718525 21.8229653,22.3042072 20.8093829,22.3042072 C19.7958004,22.3042072 18.759501,21.9719081 17.7292331,21.3165593 C16.6944557,20.658313 15.6825645,19.6766824 14.803029,18.4776981 C13.9384878,17.2992178 13.2172947,15.9364797 12.7175215,14.536801 C12.2297551,13.1708313 11.9719204,11.8259787 11.9719204,10.6476097 L11.9719204,10.6476097 Z" id="Shape" fill="#FFFFFF" fill-rule="nonzero"></path>
                    <g id="Group-3" transform="translate(29.571429, 26.285714)">
                        <circle id="Oval" stroke="#1F4C76" stroke-width="2" fill="#FFFFFF" cx="9.85714286" cy="9.85714286" r="10.8571429"></circle>
                        <circle id="Oval" fill="#204E78" cx="9.85714286" cy="9.85714286" r="7.88571429"></circle>
                    </g>
                    <g id="Group-4" transform="translate(35.047619, 31.761905)" stroke="#FFFFFF" stroke-linecap="round" stroke-width="2">
                        <line x1="4.38095238" y1="-6.07979275e-17" x2="4.38095238" y2="8.76190476" id="Line-2"></line>
                        <line x1="0" y1="4.38095238" x2="8.76190476" y2="4.38095238" id="Line-2"></line>
                    </g>
                </g>
            </g>
        </g>
    </g>
</svg>