<?xml version="1.0" encoding="UTF-8"?>
<svg width="28px" height="24px" viewBox="0 0 28 24" version="1.1" xmlns="http://www.w3.org/2000/svg" xmlns:xlink="http://www.w3.org/1999/xlink">
    <title>service-errors-icon</title>
    <g id="Page-1" stroke="none" stroke-width="1" fill="none" fill-rule="evenodd">
        <g id="Mass-Lottery-System-Dashboard" transform="translate(-465.000000, -402.000000)" fill="#FFFFFF" fill-rule="nonzero">
            <g id="player-sessions-copy" transform="translate(354.000000, 394.000000)">
                <g id="service-errors-icon" transform="translate(112.002273, 8.000000)">
                    <g id="noun_cogs_313263" transform="translate(14.497727, 12.000000) rotate(14.000000) translate(-14.497727, -12.000000) translate(4.997727, 2.000000)">
                        <path d="M6.56022222,11.1244444 L5.86533333,11.0488889 C5.56466667,11.0162222 5.27111111,11.1473333 5.09488889,11.3911111 L4.50644444,12.2046667 L3.78288889,11.8991111 L3.95711111,10.9057778 C4.00644444,10.6246667 3.91711111,10.3348889 3.71844444,10.1302222 L3.22088889,9.618 C3.00422222,9.39511111 2.68155556,9.30022222 2.37933333,9.37066667 L1.42888889,9.59133333 L1.07688889,8.91911111 L1.76666667,8.30777778 C1.95422222,8.14133333 2.06022222,7.90222222 2.05777778,7.65155556 L2.04844444,6.76577778 C2.04488889,6.44 1.86177778,6.14733333 1.57044444,6.00155556 L0.754,5.59333333 L0.946888889,4.83844444 L1.93622222,4.83844444 C2.22777778,4.83844444 2.49866667,4.69355556 2.66066667,4.45066667 L3.05244444,3.86288889 C3.20377778,3.636 3.24,3.34733333 3.14933333,3.08977778 L2.83022222,2.18644444 L3.32777778,1.76644444 L4.25488889,2.36577778 C4.456,2.49577778 4.69577778,2.54222222 4.93133333,2.49688889 L5.61066667,2.36533333 C5.93955556,2.302 6.20844444,2.06466667 6.31266667,1.74644444 L6.61466667,0.823777778 L7.35533333,0.823777778 L7.50955556,1.78266667 C7.55288889,2.05177778 7.712,2.286 7.94644444,2.42533333 L8.53444444,2.77444444 C8.83577778,2.95377778 9.206,2.94644444 9.50066667,2.75622222 L10.2755556,2.25488889 L10.8528889,2.76622222 L10.4517778,3.75866667 C10.3708889,3.95844444 10.368,4.18 10.4431111,4.38244444 L10.6915556,5.04911111 C10.804,5.35088889 11.0724444,5.56311111 11.392,5.60288889 L12.3217778,5.71911111 L12.3991111,6.426 L11.5255556,6.72644444 C11.2271111,6.82911111 11.0035556,7.08511111 10.942,7.39488889 L10.7857778,8.18466667 C10.7331111,8.45133333 10.8035556,8.72355556 10.9788889,8.93111111 C11.0977778,9.072 11.308,9.08977778 11.4486667,8.97066667 C11.5893333,8.852 11.6071111,8.64177778 11.4882222,8.50111111 C11.4442222,8.44911111 11.4266667,8.38088889 11.44,8.314 L11.596,7.52444444 C11.6113333,7.44666667 11.6675556,7.38244444 11.7424444,7.35688889 L12.8677778,6.97 C13.0151111,6.91911111 13.1077778,6.77333333 13.0906667,6.61844444 L12.956,5.38488889 C12.9391111,5.23155556 12.8191111,5.10955556 12.666,5.09044444 L11.4746667,4.94155556 C11.4024444,4.93244444 11.3417778,4.88444444 11.3164444,4.81644444 L11.0682222,4.15022222 C11.0511111,4.10422222 11.0517778,4.054 11.0702222,4.00888889 L11.5595556,2.798 C11.6124444,2.66688889 11.5773333,2.51688889 11.4715556,2.42333333 L10.5284444,1.58822222 C10.4164444,1.48933333 10.2517778,1.47644444 10.1264444,1.55777778 L9.13888889,2.19666667 C9.05844444,2.24822222 8.958,2.25044444 8.87555556,2.20133333 L8.28733333,1.852 C8.22355556,1.81422222 8.18022222,1.75022222 8.16822222,1.67688889 L7.96911111,0.437555556 C7.94311111,0.276 7.80355556,0.157111111 7.64,0.157111111 L6.37377778,0.157111111 C6.22977778,0.157111111 6.10177778,0.249777778 6.05688889,0.386666667 L5.67977778,1.53911111 C5.65088889,1.62733333 5.57622222,1.69333333 5.48488889,1.71088889 L4.80555556,1.84244444 C4.74044444,1.85466667 4.67355556,1.842 4.61755556,1.806 L3.48311111,1.07266667 C3.36,0.993111111 3.19933333,1.00333333 3.08711111,1.09777778 L2.22488889,1.82511111 C2.11888889,1.91444444 2.07933333,2.06022222 2.12555556,2.19088889 L2.52111111,3.31133333 C2.54244444,3.37177778 2.534,3.43955556 2.49844444,3.49266667 L2.10644444,4.08066667 C2.06844444,4.13755556 2.00488889,4.17155556 1.93666667,4.17155556 L0.688444444,4.17155556 C0.536,4.17155556 0.403111111,4.27488889 0.365555556,4.42244444 L0.0422222222,5.68866667 C0.00333333333,5.84066667 0.0757777778,5.99911111 0.216,6.06933333 L1.27266667,6.59777778 C1.33955556,6.63111111 1.38155556,6.69822222 1.38244444,6.77288889 L1.39177778,7.65844444 C1.39244444,7.716 1.368,7.77088889 1.32511111,7.80911111 L0.440444444,8.59333333 C0.325777778,8.69488889 0.295111111,8.86155556 0.366444444,8.99733333 L0.959111111,10.1291111 C1.02933333,10.2635556 1.18177778,10.3333333 1.32977778,10.2991111 L2.53133333,10.02 C2.60755556,10.0024444 2.68888889,10.0262222 2.74377778,10.0824444 L3.24133333,10.5948889 C3.29155556,10.6464444 3.314,10.7195556 3.30155556,10.7906667 L3.08133333,12.0453333 C3.05444444,12.1982222 3.13688889,12.3495556 3.28,12.41 L4.49244444,12.922 C4.53444444,12.9397778 4.57844444,12.9482222 4.622,12.9482222 C4.72644444,12.9482222 4.828,12.8988889 4.89222222,12.8102222 L5.63644444,11.7817778 C5.67244444,11.7317778 5.73355556,11.7055556 5.79422222,11.7117778 L6.48955556,11.7873333 C6.54311111,11.7931111 6.59155556,11.8244444 6.61911111,11.8711111 C6.71244444,12.0293333 6.91666667,12.0828889 7.07555556,11.9893333 C7.23422222,11.896 7.28711111,11.6915556 7.19377778,11.5328889 C7.05866667,11.3053333 6.82222222,11.1526667 6.56022222,11.1244444 Z" id="Path"></path>
                        <path d="M8.46933333,6.79377778 C8.468,6.75911111 8.46711111,6.72466667 8.464,6.69022222 C8.46155556,6.66444444 8.45755556,6.63911111 8.45422222,6.61355556 C8.44911111,6.57488889 8.444,6.53622222 8.43644444,6.498 C8.43266667,6.47888889 8.42777778,6.46022222 8.42333333,6.44133333 C8.41333333,6.39755556 8.40288889,6.354 8.38977778,6.31111111 C8.386,6.29866667 8.38155556,6.28688889 8.37733333,6.27444444 C8.36177778,6.22644444 8.34488889,6.17911111 8.32533333,6.13266667 C8.32222222,6.12555556 8.31888889,6.11866667 8.31577778,6.11133333 C8.29422222,6.06155556 8.27088889,6.01244444 8.24511111,5.96466667 C8.24266667,5.96022222 8.24,5.95577778 8.23733333,5.95133333 C8.21022222,5.90244444 8.18155556,5.85444444 8.15,5.808 C8.14711111,5.80355556 8.14355556,5.79933333 8.14066667,5.79488889 C8.10933333,5.74933333 8.07644444,5.70466667 8.04088889,5.66155556 C8.03688889,5.65688889 8.03266667,5.65244444 8.02866667,5.64777778 C7.99777778,5.61088889 7.96666667,5.57422222 7.93266667,5.53933333 C7.57511111,5.17355556 7.09733333,4.972 6.58577778,4.96977778 C6.58311111,4.96977778 6.58066667,4.96933333 6.57822222,4.96933333 L6.57822222,4.96933333 C6.57822222,4.96933333 6.57822222,4.96933333 6.57822222,4.96933333 C6.51377778,4.96933333 6.45,4.97266667 6.38711111,4.97911111 C5.63311111,5.05511111 5.00933333,5.57533333 4.77977778,6.27311111 C4.77844444,6.27688889 4.77688889,6.28044444 4.77555556,6.28444444 C4.76155556,6.32822222 4.75022222,6.37311111 4.73933333,6.418 C4.73511111,6.43488889 4.73,6.45133333 4.72644444,6.46844444 C4.71888889,6.50377778 4.714,6.54 4.70844444,6.576 C4.70422222,6.60333333 4.69888889,6.63044444 4.69577778,6.65822222 C4.69244444,6.68844444 4.69177778,6.71933333 4.68977778,6.75022222 C4.688,6.77955556 4.68444444,6.80844444 4.68422222,6.83822222 C4.68422222,6.84288889 4.68466667,6.84733333 4.68466667,6.85177778 C4.68466667,6.85577778 4.684,6.85977778 4.684,6.86377778 C4.684,6.88911111 4.68688889,6.91355556 4.68777778,6.93866667 C4.68911111,6.97511111 4.68977778,7.01177778 4.69333333,7.04777778 C4.69533333,7.06955556 4.69933333,7.09044444 4.70222222,7.112 C4.70777778,7.15555556 4.71355556,7.19888889 4.722,7.24155556 C4.72377778,7.25 4.72622222,7.25822222 4.72822222,7.26688889 C4.80177778,7.60911111 4.96933333,7.92311111 5.21911111,8.18022222 C5.22688889,8.18822222 5.234,8.19688889 5.24177778,8.20488889 C5.246,8.20911111 5.24955556,8.21377778 5.25377778,8.218 C5.28622222,8.24977778 5.32066667,8.27888889 5.35488889,8.308 C5.36222222,8.31422222 5.36911111,8.32111111 5.37644444,8.32711111 C5.42133333,8.36422222 5.468,8.39866667 5.51555556,8.43133333 C5.51711111,8.43244444 5.51844444,8.43355556 5.52,8.43466667 C5.72177778,8.57133333 5.946,8.66644444 6.18333333,8.71622222 C6.18822222,8.71733333 6.19311111,8.71888889 6.198,8.71977778 C6.24511111,8.72933333 6.29288889,8.73577778 6.34066667,8.74155556 C6.35644444,8.74355556 6.37177778,8.74688889 6.38777778,8.74844444 C6.414,8.75111111 6.44088889,8.75111111 6.46733333,8.75244444 C6.504,8.75466667 6.54044444,8.758 6.57755556,8.758 C6.58266667,8.758 6.58755556,8.75733333 6.59266667,8.75733333 C6.61022222,8.75711111 6.62755556,8.75711111 6.64533333,8.75644444 C6.652,8.75622222 6.65822222,8.75444444 6.66466667,8.75377778 C7.64711111,8.70888889 8.43511111,7.91377778 8.46844444,6.92844444 C8.46911111,6.92088889 8.47111111,6.91377778 8.47111111,6.906 C8.47133333,6.89911111 8.47044444,6.89244444 8.47044444,6.88555556 C8.47044444,6.87822222 8.47155556,6.87133333 8.47155556,6.864 C8.47288889,6.84022222 8.47022222,6.81711111 8.46933333,6.79377778 Z M6.60733333,8.09 C6.58333333,8.09066667 6.55955556,8.09 6.53577778,8.08933333 C6.51377778,8.08866667 6.49177778,8.088 6.47,8.086 C6.45555556,8.08488889 6.44133333,8.08288889 6.42688889,8.08111111 C6.39733333,8.07755556 6.368,8.07333333 6.33911111,8.06777778 C6.33222222,8.06644444 6.32533333,8.06466667 6.31844444,8.06333333 C6.28377778,8.05577778 6.24955556,8.04733333 6.216,8.03688889 C6.21377778,8.03622222 6.21177778,8.03555556 6.20977778,8.03488889 C6.17288889,8.02333333 6.13688889,8.01022222 6.10155556,7.99511111 C6.10111111,7.99488889 6.10066667,7.99466667 6.10044444,7.99466667 C6.06444444,7.97933333 6.02933333,7.96244444 5.99533333,7.944 C5.99355556,7.94311111 5.99177778,7.942 5.99,7.94088889 C5.95777778,7.92333333 5.92644444,7.90422222 5.89622222,7.88377778 C5.89022222,7.87977778 5.88466667,7.87533333 5.87866667,7.87111111 C5.85266667,7.85288889 5.82711111,7.83422222 5.80244444,7.814 C5.79288889,7.806 5.78377778,7.79733333 5.77422222,7.78911111 C5.75333333,7.77088889 5.73244444,7.75288889 5.71288889,7.73355556 C5.70644444,7.72711111 5.70088889,7.72022222 5.69444444,7.71377778 C5.54044444,7.55355556 5.42933333,7.352 5.38,7.12711111 C5.37866667,7.12111111 5.37688889,7.11511111 5.37555556,7.10888889 C5.37,7.08177778 5.36666667,7.05422222 5.36288889,7.02644444 C5.36111111,7.012 5.35822222,6.99777778 5.35688889,6.98333333 C5.35466667,6.96088889 5.35444444,6.93777778 5.35333333,6.91488889 C5.35244444,6.89533333 5.35111111,6.87577778 5.35111111,6.856 C5.35133333,6.83488889 5.35311111,6.814 5.35422222,6.79311111 C5.35533333,6.77222222 5.356,6.75133333 5.35822222,6.73066667 C5.36,6.71333333 5.36355556,6.69644444 5.366,6.67933333 C5.36955556,6.65555556 5.37288889,6.63133333 5.37777778,6.608 C5.38,6.59711111 5.38355556,6.58644444 5.38622222,6.57555556 C5.39333333,6.54622222 5.40066667,6.51711111 5.40977778,6.48866667 C5.41066667,6.48622222 5.41155556,6.48377778 5.41244444,6.48133333 C5.57466667,5.99222222 6.03777778,5.63666667 6.578,5.63666667 C6.57822222,5.63666667 6.57822222,5.63666667 6.57844444,5.63666667 C6.65844444,5.63666667 6.73711111,5.64511111 6.81377778,5.66 C6.81888889,5.66088889 6.82377778,5.66177778 6.82888889,5.66266667 C6.90044444,5.67733333 6.96977778,5.69955556 7.03711111,5.72666667 C7.048,5.73111111 7.05911111,5.73555556 7.06977778,5.74044444 C7.13311111,5.76822222 7.194,5.80133333 7.252,5.83955556 C7.26244444,5.84644444 7.27266667,5.85377778 7.28288889,5.86111111 C7.34111111,5.90222222 7.39666667,5.94777778 7.44777778,5.99955556 C7.45511111,6.00711111 7.46177778,6.01511111 7.46888889,6.02288889 C7.51755556,6.07444444 7.56155556,6.12888889 7.6,6.18666667 C7.60755556,6.198 7.61422222,6.21 7.62133333,6.22177778 C7.65666667,6.27866667 7.68777778,6.33777778 7.71288889,6.39933333 C7.718,6.412 7.72222222,6.42511111 7.72711111,6.43777778 C7.75066667,6.50155556 7.77,6.56711111 7.78266667,6.63444444 C7.78466667,6.64488889 7.78577778,6.65555556 7.78755556,6.666 C7.79911111,6.73711111 7.80533333,6.80955556 7.80422222,6.88333333 C7.79511111,7.54133333 7.26444444,8.07466667 6.60733333,8.09 Z" id="Shape"></path>
                        <path d="M17.9993333,13.6093333 C17.9824444,13.456 17.8624444,13.334 17.7093333,13.3148889 L16.7773333,13.1984444 C16.7475556,13.1946667 16.7226667,13.1751111 16.7124444,13.1471111 L16.5182222,12.6253333 C16.5113333,12.6066667 16.5115556,12.586 16.5188889,12.5677778 L16.9017778,11.6202222 C16.9546667,11.4891111 16.9195556,11.3391111 16.8137778,11.2455556 L16.076,10.5922222 C15.964,10.4933333 15.7995556,10.4804444 15.6737778,10.5617778 L14.9013333,11.0615556 C14.8615556,11.0873333 14.812,11.0877778 14.7717778,11.0642222 L14.3111111,10.7906667 C14.2797778,10.772 14.2586667,10.7406667 14.2526667,10.7044444 L14.0968889,9.73488889 C14.0708889,9.57333333 13.9313333,9.45444444 13.7677778,9.45444444 L12.7771111,9.45444444 C12.6331111,9.45444444 12.5051111,9.54711111 12.4602222,9.684 L12.1651111,10.5857778 C12.1506667,10.6297778 12.1133333,10.6626667 12.0677778,10.6715556 L11.5357778,10.7744444 C11.5031111,10.7813333 11.4702222,10.7742222 11.4424444,10.7562222 L10.5546667,10.1824444 C10.4315556,10.1026667 10.2708889,10.1131111 10.1586667,10.2075556 L9.484,10.7768889 C9.378,10.8662222 9.33844444,11.012 9.38466667,11.1426667 L9.69422222,12.0195556 C9.70333333,12.0453333 9.69977778,12.074 9.68466667,12.0968889 L9.378,12.5568889 C9.36177778,12.5811111 9.33466667,12.5957778 9.30555556,12.5957778 L8.32888889,12.5957778 C8.17644444,12.5957778 8.04355556,12.6991111 8.00577778,12.8466667 L7.75288889,13.8375556 C7.71422222,13.9895556 7.78644444,14.148 7.92688889,14.2182222 L8.754,14.6315556 C8.78177778,14.6453333 8.79911111,14.6733333 8.79955556,14.7044444 L8.80688889,15.3975556 C8.80711111,15.4213333 8.79711111,15.4444444 8.77911111,15.46 L8.08666667,16.0733333 C7.972,16.1751111 7.94133333,16.3417778 8.01244444,16.4775556 L8.47622222,17.3628889 C8.54666667,17.4971111 8.69911111,17.5671111 8.84688889,17.5328889 L9.78666667,17.3148889 C9.822,17.3062222 9.85955556,17.3177778 9.88488889,17.3435556 L10.274,17.7442222 C10.2971111,17.768 10.3075556,17.8017778 10.3017778,17.8346667 L10.1295556,18.8162222 C10.1026667,18.9691111 10.1851111,19.1204444 10.3282222,19.1808889 L11.2768889,19.5815556 C11.42,19.6424444 11.5855556,19.5955556 11.6766667,19.4697778 L12.2586667,18.6653333 C12.2717778,18.6471111 12.2931111,18.6373333 12.316,18.64 L12.8597778,18.6991111 C12.8791111,18.7013333 12.8966667,18.7126667 12.9064444,18.7295556 L13.4382222,19.6333333 C13.4993333,19.7371111 13.6095556,19.7975556 13.7255556,19.7975556 C13.756,19.7975556 13.7866667,19.7933333 13.8171111,19.7846667 L14.85,19.4895556 C15.0031111,19.4457778 15.1037778,19.2997778 15.0906667,19.1413333 L15.0008889,18.066 L15.5464444,17.576 C15.568,17.5564444 15.5982222,17.5488889 15.6251111,17.5504444 L16.4273333,17.9946667 C16.5751111,18.0762222 16.7595556,18.0353333 16.8586667,17.8986667 L17.4313333,17.1091111 C17.436,17.1026667 17.4391111,17.0953333 17.4433333,17.0886667 C17.4497778,17.0782222 17.4564444,17.068 17.4615556,17.0571111 C17.4662222,17.0473333 17.4695556,17.0373333 17.4731111,17.0273333 C17.4768889,17.0171111 17.4806667,17.0071111 17.4835556,16.9968889 C17.4864444,16.986 17.4877778,16.9751111 17.4895556,16.964 C17.4911111,16.9537778 17.4928889,16.9437778 17.4935556,16.9335556 C17.4942222,16.9226667 17.4935556,16.912 17.4931111,16.9011111 C17.4926667,16.8904444 17.4924444,16.88 17.4911111,16.8693333 C17.4897778,16.8588889 17.4871111,16.8488889 17.4848889,16.8386667 C17.4824444,16.828 17.4802222,16.8173333 17.4766667,16.8066667 C17.4731111,16.7964444 17.4684444,16.7866667 17.464,16.7766667 C17.4595556,16.7671111 17.4555556,16.7573333 17.4502222,16.748 C17.4442222,16.7375556 17.4366667,16.7277778 17.4295556,16.7177778 C17.4248889,16.7113333 17.4213333,16.7044444 17.4162222,16.6982222 L16.834,16.0086667 C16.8137778,15.9848889 16.8057778,15.9535556 16.8117778,15.9228889 L16.9337778,15.3053333 C16.9408889,15.2697778 16.9664444,15.2404444 17.0006667,15.2286667 L17.8811111,14.926 C18.0284444,14.8751111 18.1211111,14.7293333 18.104,14.5744444 L17.9993333,13.6093333 Z M16.7844444,14.598 C16.5264444,14.6864444 16.3333333,14.908 16.2802222,15.1757778 L16.1582222,15.7933333 C16.1124444,16.0235556 16.1733333,16.2588889 16.3248889,16.4384444 L16.7388889,16.9286667 L16.4926667,17.2682222 L15.9102222,16.9457778 C15.8915556,16.9353333 15.8717778,16.9268889 15.8513333,16.9204444 C15.5913333,16.8362222 15.3042222,16.8973333 15.1011111,17.0797778 L14.5342222,17.5888889 C14.5317778,17.5911111 14.5308889,17.5944444 14.5284444,17.5966667 C14.3968889,17.6502222 14.3086667,17.7828889 14.3211111,17.932 L14.4037778,18.9237778 L13.8822222,19.0728889 L13.4813333,18.3915556 C13.3651111,18.1937778 13.1595556,18.0611111 12.9315556,18.0362222 L12.388,17.9771111 C12.1284444,17.9484444 11.872,18.0628889 11.7186667,18.2744444 L11.292,18.8642222 L10.8322222,18.67 L10.9586667,17.95 C11.0013333,17.7071111 10.9242222,17.4566667 10.7524444,17.2797778 L10.3633333,16.8791111 C10.1764444,16.6866667 9.89777778,16.6048889 9.63644444,16.6653333 L8.94733333,16.8253333 L8.72422222,16.3993333 L9.22155556,15.9586667 C9.384,15.8146667 9.47577778,15.6073333 9.47355556,15.3902222 L9.46622222,14.6973333 C9.46333333,14.4148889 9.30444444,14.1611111 9.05222222,14.0351111 L8.46555556,13.742 L8.588,13.2624444 L9.30577778,13.2624444 C9.55822222,13.2624444 9.79266667,13.1371111 9.93288889,12.9266667 L10.2393333,12.4668889 C10.3704444,12.2704444 10.4015556,12.0204444 10.3231111,11.7977778 L10.0902222,11.138 L10.4002222,10.8762222 L11.0804444,11.316 C11.254,11.4282222 11.4606667,11.468 11.6631111,11.4288889 L12.1948889,11.326 C12.478,11.2711111 12.7093333,11.0668889 12.7991111,10.7931111 L13.0191111,10.1213333 L13.4842222,10.1213333 L13.5951111,10.8106667 C13.6324444,11.0426667 13.7697778,11.2444444 13.9715556,11.364 L14.4317778,11.6373333 C14.6911111,11.7917778 15.0104444,11.7857778 15.264,11.6217778 L15.824,11.2593333 L16.196,11.5888889 L15.9011111,12.318 C15.8311111,12.4913333 15.8286667,12.6833333 15.8937778,12.8582222 L16.088,13.3797778 C16.1853333,13.6413333 16.418,13.8255556 16.6951111,13.86 L17.3657778,13.944 L17.4135556,14.3824444 L16.7844444,14.598 Z" id="Shape"></path>
                        <path d="M12.9384444,13.22 C12.0813333,13.22 11.3837778,13.9175556 11.3837778,14.7746667 C11.3837778,15.6317778 12.0811111,16.3291111 12.9384444,16.3291111 C13.7957778,16.3291111 14.4931111,15.6317778 14.4931111,14.7746667 C14.4931111,13.9175556 13.7955556,13.22 12.9384444,13.22 Z M12.9384444,15.6624444 C12.4488889,15.6624444 12.0504444,15.2642222 12.0504444,14.7746667 C12.0504444,14.2851111 12.4486667,13.8866667 12.9384444,13.8866667 C13.4282222,13.8866667 13.8264444,14.2851111 13.8264444,14.7746667 C13.8264444,15.2642222 13.428,15.6624444 12.9384444,15.6624444 Z" id="Shape"></path>
                    </g>
                    <path d="M1.27237603,22 C0.833547323,22 0.428849737,21.7227801 0.199683634,21.2871489 C-0.0587377161,20.7949422 -0.0587377161,20.2065571 0.155800763,19.6917202 L2.99843562,14.2944188 C3.32024334,13.7456366 3.73956855,13.3043478 4.34905286,13.3043478 C4.95853718,13.3043478 5.37786239,13.7456366 5.69967011,14.2944188 L8.52767734,19.6634324 C8.76171931,20.1669543 8.75196757,20.8005997 8.49354622,21.2871489 C8.26438011,21.7227801 7.8645584,22 7.42085382,22 L1.27237603,22 Z M4.34905286,19.1825408 C4.60747421,19.1825408 4.81226094,19.4258154 4.81226094,19.7256655 C4.81226094,20.0255155 4.60747421,20.2631326 4.34905286,20.2631326 C4.09063151,20.2631326 3.88096891,20.0255155 3.88096891,19.7256655 C3.88096891,19.4258154 4.09063151,19.1825408 4.34905286,19.1825408 Z M4.34905286,18.6450737 C4.17839725,18.6450737 4.05650039,18.4810048 4.03699689,18.2829906 L3.88096891,16.6592741 C3.85658953,16.3820543 4.11013501,16.121807 4.34905286,16.121807 C4.58797071,16.121807 4.84151619,16.3820543 4.81226094,16.6592741 L4.65623296,18.2829906 C4.64160533,18.4753472 4.52458435,18.6450737 4.34905286,18.6450737 Z M1.27237603,21.2814913 L7.42085382,21.2814913 C7.65001992,21.2814913 7.8450549,21.1343951 7.96695177,20.9080931 C8.10835213,20.6365308 8.10347625,20.308393 7.99133114,20.0255155 L5.18282741,14.6961048 C4.98291655,14.3566519 4.73424695,14.0228565 4.34905286,14.0228565 C3.96385877,14.0228565 3.7103133,14.3566519 3.51040244,14.6961048 L0.706774586,20.0255155 C0.589753597,20.3140505 0.584877722,20.6365308 0.731153958,20.9080931 C0.848174947,21.1343951 1.04320993,21.2814913 1.27237603,21.2814913 Z" id="Shape" stroke="#FFFFFF" stroke-width="0.2"></path>
                </g>
            </g>
        </g>
    </g>
</svg>