<?xml version="1.0" encoding="UTF-8"?>
<svg width="24px" height="31px" viewBox="0 0 24 31" version="1.1" xmlns="http://www.w3.org/2000/svg" xmlns:xlink="http://www.w3.org/1999/xlink">
    <title>tickets-icon</title>
    <g id="Page-1" stroke="none" stroke-width="1" fill="none" fill-rule="evenodd">
        <g id="Mass-Lottery-Exec-Dashboard" transform="translate(-377.000000, -195.000000)" fill="#FFFFFF" fill-rule="nonzero">
            <g id="tickets-cashed" transform="translate(185.000000, 174.000000)">
                <path d="M216.064655,48 L192.866379,48 C190.739871,48 189,46.275 189,44.1666667 L189,39.5666667 C190.701207,39.5666667 192.093103,38.1866667 192.093103,36.5 C192.093103,34.8133333 190.701207,33.4333333 189,33.4333333 L189,28.8333333 C189,26.725 190.739871,25 192.866379,25 L216.064655,25 C218.191164,25 219.931034,26.725 219.931034,28.8333333 L219.931034,44.1666667 C219.931034,46.275 218.191164,48 216.064655,48 Z M218.384483,28.8333333 C218.384483,27.5683333 217.34056,26.5333333 216.064655,26.5333333 L200.985776,26.5333333 L200.985776,31.5166667 L199.439224,31.5166667 L199.439224,26.5333333 L192.866379,26.5333333 C191.590474,26.5333333 190.546552,27.5683333 190.546552,28.8333333 L190.546552,32.1683333 C192.36375,32.7816667 193.639655,34.5066667 193.639655,36.5 C193.639655,38.4933333 192.36375,40.2183333 190.546552,40.8316667 L190.546552,44.1666667 C190.546552,45.4316667 191.590474,46.4666667 192.866379,46.4666667 L199.439224,46.4666667 L199.439224,41.4833333 L200.985776,41.4833333 L200.985776,46.4666667 L216.064655,46.4666667 C217.34056,46.4666667 218.384483,45.4316667 218.384483,44.1666667 L218.384483,28.8333333 Z M199.439224,33.8166667 L200.985776,33.8166667 L200.985776,39.1833333 L199.439224,39.1833333 L199.439224,33.8166667 Z" id="tickets-icon" transform="translate(204.465517, 36.500000) rotate(-90.000000) translate(-204.465517, -36.500000) "></path>
            </g>
        </g>
    </g>
</svg>