<?xml version="1.0" encoding="UTF-8"?>
<svg width="32px" height="20px" viewBox="0 0 32 20" version="1.1" xmlns="http://www.w3.org/2000/svg" xmlns:xlink="http://www.w3.org/1999/xlink">
    <title>communications-icon</title>
    <g id="Page-1" stroke="none" stroke-width="1" fill="none" fill-rule="evenodd">
        <g id="Mass-Lottery-System-Dashboard" transform="translate(-289.000000, -190.000000)" fill="#FFFFFF" fill-rule="nonzero">
            <g id="flagged-copy-3" transform="translate(185.000000, 179.000000)">
                <path d="M125.708738,24.3592233 L129.165049,28.0873786 C129.320388,28.2815534 129.592233,28.3203883 129.825243,28.2427184 C130.058252,28.1650485 130.213592,27.9320388 130.213592,27.6601942 L130.213592,24.2427184 C131.029126,24.0873786 132.582524,23.3495146 133.553398,22.3786408 C134.834951,21.1359223 135.495146,19.4660194 135.495146,17.6796117 C135.495146,13.9902913 132.504854,11 128.815534,11 L119.106796,11 C116.893204,11 114.951456,12.0873786 113.747573,13.7184466 L110.640777,13.7184466 C108.854369,13.7184466 107.184466,14.4174757 105.941748,15.6601942 C104.660194,16.9029126 104,18.5728155 104,20.3592233 C104,24.0873786 106.990291,27.0776699 110.679612,27.0776699 L112.660194,27.0776699 L112.660194,30.4174757 C112.660194,30.6504854 112.815534,30.8834951 113.048544,30.961165 C113.281553,31.038835 113.553398,31 113.708738,30.8446602 L117.475728,27.0776699 L120.38835,27.0776699 C122.174757,27.0776699 123.84466,26.3786408 125.087379,25.1359223 C125.320388,24.8640777 125.514563,24.631068 125.708738,24.3592233 Z M119.145631,12.2427184 L128.854369,12.2427184 C131.84466,12.2427184 134.291262,14.6893204 134.291262,17.6796117 C134.291262,19.1165049 133.708738,20.5145631 132.699029,21.5242718 C131.961165,22.2621359 130.563107,23.038835 129.553398,23.1165049 C129.242718,23.1553398 129.009709,23.3883495 129.009709,23.7378641 L129.009709,26.1456311 L126.407767,23.3495146 C126.291262,23.2330097 126.135922,23.1553398 125.980583,23.1553398 C123.262136,23.1553398 121.902913,23.1553398 119.184466,23.1553398 C116.194175,23.1553398 113.747573,20.7087379 113.747573,17.7184466 C113.708738,14.6893204 116.15534,12.2427184 119.145631,12.2427184 Z M120.38835,25.8737864 L117.203883,25.8737864 C117.048544,25.8737864 116.893204,25.9514563 116.776699,26.0679612 L113.864078,28.9805825 L113.864078,26.4951456 C113.864078,26.1456311 113.592233,25.8737864 113.242718,25.8737864 L110.679612,25.8737864 C107.68932,25.8737864 105.242718,23.4271845 105.242718,20.4368932 C105.242718,19 105.825243,17.6019417 106.834951,16.592233 C107.883495,15.5436893 109.242718,15 110.679612,15 L113.087379,15 C111.067961,19.3495146 114.368932,24.3592233 119.145631,24.3592233 L124.116505,24.3592233 C123.106796,25.3300971 121.786408,25.8737864 120.38835,25.8737864 Z M117.941748,19.5048544 C118.951456,19.5048544 119.76699,18.6893204 119.76699,17.6796117 C119.76699,16.6699029 118.951456,15.8543689 117.941748,15.8543689 C116.932039,15.8543689 116.116505,16.6699029 116.116505,17.6796117 C116.116505,18.6893204 116.932039,19.5048544 117.941748,19.5048544 Z M117.941748,17.0582524 C118.291262,17.0582524 118.563107,17.3300971 118.563107,17.6796117 C118.563107,18.0291262 118.291262,18.3009709 117.941748,18.3009709 C117.592233,18.3009709 117.320388,18.0291262 117.320388,17.6796117 C117.359223,17.3300971 117.631068,17.0582524 117.941748,17.0582524 Z M124,19.5048544 C125.009709,19.5048544 125.825243,18.6893204 125.825243,17.6796117 C125.825243,16.6699029 125.009709,15.8543689 124,15.8543689 C122.990291,15.8543689 122.174757,16.6699029 122.174757,17.6796117 C122.174757,18.6893204 122.990291,19.5048544 124,19.5048544 Z M124,17.0582524 C124.349515,17.0582524 124.621359,17.3300971 124.621359,17.6796117 C124.621359,18.0291262 124.349515,18.3009709 124,18.3009709 C123.650485,18.3009709 123.378641,18.0291262 123.378641,17.6796117 C123.417476,17.3300971 123.68932,17.0582524 124,17.0582524 Z M130.058252,19.5048544 C131.067961,19.5048544 131.883495,18.6893204 131.883495,17.6796117 C131.883495,16.6699029 131.067961,15.8543689 130.058252,15.8543689 C129.048544,15.8543689 128.23301,16.6699029 128.23301,17.6796117 C128.23301,18.6893204 129.048544,19.5048544 130.058252,19.5048544 Z M130.058252,17.0582524 C130.407767,17.0582524 130.679612,17.3300971 130.679612,17.6796117 C130.679612,18.0291262 130.407767,18.3009709 130.058252,18.3009709 C129.708738,18.3009709 129.436893,18.0291262 129.436893,17.6796117 C129.436893,17.3300971 129.747573,17.0582524 130.058252,17.0582524 Z" id="communications-icon"></path>
            </g>
        </g>
    </g>
</svg>