<?xml version="1.0" encoding="UTF-8"?>
<svg width="27px" height="22px" viewBox="0 0 27 22" version="1.1" xmlns="http://www.w3.org/2000/svg" xmlns:xlink="http://www.w3.org/1999/xlink">
    <title>container-error-icon</title>
    <defs>
        <path d="M1.49691298,19.9633152 C0.98064391,19.9633152 0.504529103,19.6371741 0.234921922,19.1246668 C-0.0691031955,18.5456001 -0.0691031955,17.8533823 0.183295016,17.2476919 L3.52757131,10.8979256 C3.90616863,10.2522994 4.39949241,9.73313614 5.11653278,9.73313614 C5.83357315,9.73313614 6.32689693,10.2522994 6.70549424,10.8979256 L10.0325616,17.2144122 C10.3079051,17.8067908 10.2964324,18.552256 9.99240731,19.1246668 C9.72280013,19.6371741 9.25242165,19.9633152 8.73041626,19.9633152 L1.49691298,19.9633152 Z M5.11653278,16.6486573 C5.4205579,16.6486573 5.66148346,16.9348627 5.66148346,17.2876275 C5.66148346,17.6403923 5.4205579,17.9199417 5.11653278,17.9199417 C4.81250766,17.9199417 4.56584577,17.6403923 4.56584577,17.2876275 C4.56584577,16.9348627 4.81250766,16.6486573 5.11653278,16.6486573 Z M5.11653278,16.016343 C4.91576147,16.016343 4.7723534,15.8233208 4.74940811,15.5903629 L4.56584577,13.6801083 C4.53716416,13.3539672 4.83545295,13.047794 5.11653278,13.047794 C5.3976126,13.047794 5.6959014,13.3539672 5.66148346,13.6801083 L5.47792113,15.5903629 C5.46071216,15.8166649 5.32304041,16.016343 5.11653278,16.016343 Z M1.49691298,19.1180109 L8.73041626,19.1180109 C9.00002344,19.1180109 9.22947636,18.9449564 9.37288443,18.6787188 C9.5392378,18.3592337 9.53350147,17.9731893 9.40156605,17.6403923 L6.09744401,11.3704973 C5.86225477,10.9711409 5.56970229,10.5784405 5.11653278,10.5784405 C4.66336326,10.5784405 4.36507447,10.9711409 4.12988523,11.3704973 L0.831499512,17.6403923 C0.693827761,17.9798452 0.688091438,18.3592337 0.860181127,18.6787188 C0.997852879,18.9449564 1.2273058,19.1180109 1.49691298,19.1180109 Z" id="path-1"></path>
    </defs>
    <g id="Page-1" stroke="none" stroke-width="1" fill="none" fill-rule="evenodd">
        <g id="Mass-Lottery-System-Dashboard" transform="translate(-462.000000, -485.000000)" fill-rule="nonzero">
            <g id="player-sessions" transform="translate(354.000000, 476.000000)">
                <g id="container-error-icon" transform="translate(110.000000, 9.000000)">
                    <path d="M24.2453623,5.09975499 L24.2453623,4.80224011 L15.9044452,0 L15.40042,0 L7.28351418,4.71123556 L7.28351418,5.00525026 L7.0280014,5.15225761 L7,14.739237 L7.25551278,15.1872594 L15.5964298,20 L15.8554428,19.8494925 L16.1109555,19.9964998 L24.2173609,15.2887644 L24.4728736,14.8442422 L24.500875,5.26076304 L24.2453623,5.09975499 Z M15.6489324,1.03955198 L22.960798,5.26076304 L15.879944,9.37696885 L12.5022751,7.42737137 L8.5680784,5.15575779 L15.6489324,1.03955198 Z M8.0500525,6.04480224 L14.3503675,9.68848442 L15.3549177,10.2695135 L15.3304165,18.6699335 L8.02905145,14.4417221 L8.0500525,6.04480224 Z M23.4508225,14.5502275 L16.3699685,18.659433 L16.3944697,10.259013 L23.4718236,6.14980749 L23.4508225,14.5502275 Z" id="Shape" fill="#FFFFFF"></path>
                    <g id="Shape">
                        <use fill="#FFFFFF" xlink:href="#path-1"></use>
                        <path stroke="#1E4B75" stroke-width="1.5" d="M5.11653278,8.98313614 C6.03435129,8.98313614 6.73538309,9.54032326 7.25903138,10.365361 L7.3614076,10.5338541 L10.7040998,16.8800047 C11.0848608,17.6830293 11.0679473,18.6985648 10.6561672,19.4738412 C10.4582861,19.8500016 10.182883,20.1537072 9.86468823,20.3651616 C9.57401838,20.5583244 9.24725217,20.6761373 8.90357517,20.705856 L8.73041626,20.7133152 L1.49691298,20.7133152 C1.09342383,20.7133152 0.703969501,20.5905476 0.363010158,20.3639652 C0.0447955459,20.1524976 -0.231469993,19.8490261 -0.429119387,19.4733058 C-0.809454847,18.7488932 -0.844617715,17.8909239 -0.570035435,17.1175019 L-0.494957343,16.926034 L2.87165022,10.5338674 C3.40516798,9.61709739 4.13752163,8.98313614 5.11653278,8.98313614 Z M3.823,13.795 L1.7708535,18.3515658 L4.149,18.213 L4.07609253,18.1198192 C3.91618768,17.8935121 3.81584577,17.6060995 3.81584577,17.2876275 C3.81584577,16.9182754 3.95136767,16.5872117 4.15905671,16.3462271 L4.245,16.311 L4.22871215,16.2897467 C4.13369464,16.1523278 4.06124232,15.986312 4.0239894,15.8028222 L4.00284702,15.6621023 L3.823,13.795 Z M6.41456721,13.6176714 L6.40804455,13.7518477 L6.22505242,15.6561684 C6.20602719,15.8860719 6.12874509,16.1003263 6.01452642,16.2731444 C6.03393715,16.2991312 6.05295196,16.324883 6.07289427,16.3482659 C6.27768952,16.5883942 6.41148346,16.9185663 6.41148346,17.2876275 C6.41148346,17.5959663 6.31847009,17.8747208 6.16922708,18.0969402 L8.71597335,17.9481373 L6.41346814,13.5744127 C6.41409031,13.588814 6.414458,13.6032356 6.41456721,13.6176714 Z M5.11653278,11.3284405 C4.91088615,11.3284405 4.85728183,11.6133146 4.5483867,12.185883 L4.5483867,12.185883 L4.323,12.685 L4.33395274,12.6814661 C5.26362459,12.3028084 5.64253735,12.3591046 5.84944237,12.5070661 L5.45118701,11.7510914 L5.42217973,11.6938128 C5.3561713,11.5477184 5.29593941,11.3284405 5.11653278,11.3284405 Z"></path>
                        <use stroke="#FFFFFF" stroke-width="0.2" xlink:href="#path-1"></use>
                    </g>
                </g>
            </g>
        </g>
    </g>
</svg>