<?xml version="1.0" encoding="UTF-8"?>
<svg width="18px" height="20px" viewBox="0 0 18 20" version="1.1" xmlns="http://www.w3.org/2000/svg" xmlns:xlink="http://www.w3.org/1999/xlink">
    <title>containers-icon</title>
    <g id="Page-1" stroke="none" stroke-width="1" fill="none" fill-rule="evenodd">
        <g id="Mass-Lottery-System-Dashboard" transform="translate(-303.000000, -485.000000)" fill="#FFFFFF" fill-rule="nonzero">
            <g id="flagged" transform="translate(185.000000, 476.000000)">
                <path d="M135.245362,14.099755 L135.245362,13.8022401 L126.904445,9 L126.40042,9 L118.283514,13.7112356 L118.283514,14.0052503 L118.028001,14.1522576 L118,23.739237 L118.255513,24.1872594 L126.59643,29 L126.855443,28.8494925 L127.110956,28.9964998 L135.217361,24.2887644 L135.472874,23.8442422 L135.500875,14.260763 L135.245362,14.099755 Z M126.648932,10.039552 L133.960798,14.260763 L126.879944,18.3769688 L123.502275,16.4273714 L119.568078,14.1557578 L126.648932,10.039552 Z M119.050053,15.0448022 L125.350368,18.6884844 L126.354918,19.2695135 L126.330417,27.6699335 L119.029051,23.4417221 L119.050053,15.0448022 Z M134.450823,23.5502275 L127.369968,27.659433 L127.39447,19.259013 L134.471824,15.1498075 L134.450823,23.5502275 Z" id="containers-icon"></path>
            </g>
        </g>
    </g>
</svg>