<?xml version="1.0" encoding="UTF-8"?>
<svg width="14px" height="15px" viewBox="0 0 14 15" version="1.1" xmlns="http://www.w3.org/2000/svg" xmlns:xlink="http://www.w3.org/1999/xlink">
    <title>home-Icon</title>
    <g id="Page-1" stroke="none" stroke-width="1" fill="none" fill-rule="evenodd">
        <g id="Mass-Lottery-Exec-Homepage" transform="translate(-17.000000, -115.000000)" fill="#FFFFFF">
            <g id="left" transform="translate(-51.000000, 86.000000)">
                <g id="home" transform="translate(51.000000, 0.500000)">
                    <path d="M29.205017,37.2688638 L29.205017,42.028621 C29.205017,42.5628794 28.7614538,43 28.2193211,43 L25.3115181,43 L25.3115181,39.3087598 C25.3115181,39.2601908 25.2129485,39.1630529 25.1636637,39.1630529 L22.8472783,39.1630529 C22.7487088,39.1630529 22.6501392,39.2601908 22.6501392,39.3087598 L22.6501392,43 L19.7423362,43 C19.2002035,43 18.7566403,42.5628794 18.7566403,42.028621 L18.7566403,37.2688638 L17.6723748,37.2688638 C17.0809573,37.2688638 16.7852485,36.5888985 17.1795269,36.151778 L23.3894111,29.254987 C23.6851199,28.9150043 24.2765374,28.9150043 24.5722462,29.254987 L30.8314152,36.151778 C31.2256936,36.5888985 30.8807,37.2688638 30.2892825,37.2688638 L29.205017,37.2688638 Z" id="home-Icon"></path>
                </g>
            </g>
        </g>
    </g>
</svg>