<?xml version="1.0" encoding="UTF-8"?>
<svg width="27px" height="22px" viewBox="0 0 27 22" version="1.1" xmlns="http://www.w3.org/2000/svg" xmlns:xlink="http://www.w3.org/1999/xlink">
    <title>login-error-icon</title>
    <defs>
        <path d="M1.27237603,20 C0.833547323,20 0.428849737,19.7227801 0.199683634,19.2871489 C-0.0587377161,18.7949422 -0.0587377161,18.2065571 0.155800763,17.6917202 L2.99843562,12.2944188 C3.32024334,11.7456366 3.73956855,11.3043478 4.34905286,11.3043478 C4.95853718,11.3043478 5.37786239,11.7456366 5.69967011,12.2944188 L8.52767734,17.6634324 C8.76171931,18.1669543 8.75196757,18.8005997 8.49354622,19.2871489 C8.26438011,19.7227801 7.8645584,20 7.42085382,20 L1.27237603,20 Z M4.34905286,17.1825408 C4.60747421,17.1825408 4.81226094,17.4258154 4.81226094,17.7256655 C4.81226094,18.0255155 4.60747421,18.2631326 4.34905286,18.2631326 C4.09063151,18.2631326 3.88096891,18.0255155 3.88096891,17.7256655 C3.88096891,17.4258154 4.09063151,17.1825408 4.34905286,17.1825408 Z M4.34905286,16.6450737 C4.17839725,16.6450737 4.05650039,16.4810048 4.03699689,16.2829906 L3.88096891,14.6592741 C3.85658953,14.3820543 4.11013501,14.121807 4.34905286,14.121807 C4.58797071,14.121807 4.84151619,14.3820543 4.81226094,14.6592741 L4.65623296,16.2829906 C4.64160533,16.4753472 4.52458435,16.6450737 4.34905286,16.6450737 Z M1.27237603,19.2814913 L7.42085382,19.2814913 C7.65001992,19.2814913 7.8450549,19.1343951 7.96695177,18.9080931 C8.10835213,18.6365308 8.10347625,18.308393 7.99133114,18.0255155 L5.18282741,12.6961048 C4.98291655,12.3566519 4.73424695,12.0228565 4.34905286,12.0228565 C3.96385877,12.0228565 3.7103133,12.3566519 3.51040244,12.6961048 L0.706774586,18.0255155 C0.589753597,18.3140505 0.584877722,18.6365308 0.731153958,18.9080931 C0.848174947,19.1343951 1.04320993,19.2814913 1.27237603,19.2814913 Z" id="path-1"></path>
    </defs>
    <g id="Page-1" stroke="none" stroke-width="1" fill="none" fill-rule="evenodd">
        <g id="Mass-Lottery-System-Dashboard" transform="translate(-801.000000, -189.000000)" fill-rule="nonzero">
            <g id="flagged-copy-2" transform="translate(691.000000, 179.000000)">
                <g id="login-error-icon" transform="translate(112.002273, 10.000000)">
                    <path d="M15.1283978,20 C20.1716104,20 24.2585968,18.077535 24.2585968,15.7049473 C24.2585968,13.9575831 22.0408788,11.3937341 18.8580248,10.1626016 C17.8626105,11.3734907 16.5580588,12.2297288 15.1283978,12.2297288 C13.6989106,12.2297288 12.3942844,11.3734907 11.3981255,10.1626016 C8.21606572,11.3937341 5.99772727,13.9575831 5.99772727,15.7049473 C5.99772727,18.077535 10.0853342,20 15.1283978,20 L15.1283978,20 Z M7.32550897,14.7358546 C7.5396665,14.3159015 7.86610218,13.8670255 8.26952445,13.4378063 C9.03422745,12.6241577 10.0294432,11.9156135 11.1215002,11.4003598 C11.5757008,11.8585505 12.061247,12.2386281 12.5714874,12.5348715 C13.3962756,13.0137458 14.2565293,13.256569 15.1283978,13.256569 C16.541629,13.256569 17.9415577,12.6030341 19.1346253,11.4003598 C20.2269554,11.9155157 21.2222704,12.6240844 21.9869982,13.4377819 C22.390346,13.8669767 22.7167569,14.3158281 22.9308648,14.7357813 C23.1667136,15.1983728 23.2162262,15.5181602 23.2162262,15.7049473 C23.2162262,16.0265684 23.0630225,16.3600714 22.7608343,16.6962149 C22.3993054,17.098394 21.8372691,17.4854638 21.1355303,17.8155685 C20.3743267,18.1736424 19.4796252,18.4564146 18.476269,18.6560128 C17.4184117,18.8664417 16.292031,18.9731598 15.1283978,18.9731598 C13.9647896,18.9731598 12.8383839,18.8664417 11.7805019,18.6560128 C10.777096,18.4564146 9.88232008,18.1736424 9.12104202,17.8155685 C8.41925359,17.4854394 7.857118,17.0983695 7.49553948,16.696166 C7.19335126,16.360047 7.04009794,16.0265439 7.04009794,15.7049473 C7.04009794,15.5181846 7.08961051,15.1984217 7.32550897,14.7358546 Z M15.1281002,10.8130081 C17.8433739,10.8130081 20.04455,7.25143756 20.04455,4.67176984 C20.04455,2.09190659 17.8433739,0 15.1281002,0 C12.4129502,0 10.2117741,2.09129545 10.2117741,4.67176984 C10.2117741,7.25217098 12.4129502,10.8130081 15.1281002,10.8130081 Z M11.2505547,4.67176984 C11.2505547,3.70573293 11.6487293,2.79536122 12.3716464,2.1084326 C13.105718,1.41089407 14.0846451,1.0267626 15.1281002,1.0267626 C16.1715059,1.0267626 17.1504825,1.41099187 17.8846282,2.10862813 C18.6075948,2.79565455 19.0057694,3.70592854 19.0057694,4.67176984 C19.0057694,5.18864707 18.8926412,5.77859553 18.6786277,6.3778826 C18.4593213,6.99203333 18.1429137,7.58995138 17.7635856,8.10704862 C17.3776044,8.63319114 16.9336246,9.06399138 16.4796033,9.35282943 C16.0275111,9.64042081 15.572822,9.78624553 15.1281002,9.78624553 C14.6833784,9.78624553 14.2286893,9.6404452 13.7766466,9.35290285 C13.3226253,9.06408919 12.8786455,8.63338667 12.4927385,8.10731756 C12.1134104,7.5902448 11.796978,6.99232667 11.5776964,6.37820041 C11.3636829,5.77886439 11.2505547,5.18879374 11.2505547,4.67176984 L11.2505547,4.67176984 Z" id="player_icon" fill="#FFFFFF"></path>
                    <g id="Shape">
                        <use fill="#FFFFFF" xlink:href="#path-1"></use>
                        <path stroke="#1E4B75" stroke-width="1.5" d="M4.34905286,10.5543478 C5.16241481,10.5543478 5.79021329,11.0386729 6.25786514,11.7700299 L6.35563428,11.9304439 L9.19910465,17.3288145 C9.53868342,18.0430112 9.5235173,18.9468429 9.15730614,19.6363233 C8.97984688,19.9736629 8.73254544,20.2456761 8.447251,20.4352668 C8.19153154,20.6052036 7.90489556,20.7104771 7.60340338,20.7408478 L7.42085382,20.75 L1.27237603,20.75 C0.907328287,20.75 0.554831173,20.6392873 0.246292632,20.4342499 C-0.0390309402,20.2446399 -0.287074405,19.9727934 -0.464357675,19.6357879 C-0.800294023,18.9959408 -0.834100914,18.2386087 -0.594417844,17.5544021 L-0.522290509,17.3697565 L2.34246367,11.9304572 C2.81914653,11.1103393 3.4775889,10.5543478 4.34905286,10.5543478 Z M3.181,14.933 L1.39638932,18.3255426 L1.39929631,18.3722041 C1.41337622,18.4189908 1.45901071,18.4663953 1.51852168,18.5165965 L1.51852168,18.5165965 L3.3197762,18.4165326 C3.20249334,18.220756 3.13096891,17.9843132 3.13096891,17.7256655 C3.13096891,17.3827708 3.25724098,17.0756684 3.44997973,16.8520308 C3.65928966,16.7649535 3.84164927,16.6978052 4.00096542,16.6472963 L3.181,14.933 Z M5.535,14.972 L5.34371754,16.9827243 C5.4785109,17.1886956 5.56226094,17.4449651 5.56226094,17.7256655 C5.56226094,17.9343869 5.51615891,18.1283979 5.43745802,18.2981213 L7.234,18.197 L5.535,14.972 Z M4.52594218,13.0548589 C4.49185318,12.9741951 4.46413831,12.8280587 4.23248417,13.011413 L4.23248417,13.011413 L4.159,13.073 L3.86687819,13.6318082 C4.27526095,13.4845367 4.54850341,13.4431688 4.7393395,13.4594848 L4.53657041,13.0766989 L4.534,13.073 Z"></path>
                        <use stroke="#FFFFFF" stroke-width="0.2" xlink:href="#path-1"></use>
                    </g>
                </g>
            </g>
        </g>
    </g>
</svg>