<?xml version="1.0" encoding="UTF-8"?>
<svg width="30px" height="33px" viewBox="0 0 30 33" version="1.1" xmlns="http://www.w3.org/2000/svg" xmlns:xlink="http://www.w3.org/1999/xlink">
    <title>player_icon</title>
    <g id="Page-1" stroke="none" stroke-width="1" fill="none" fill-rule="evenodd">
        <g id="Mass-Lottery-Exec-Dashboard" transform="translate(-620.000000, -285.000000)" fill="#FFFFFF" fill-rule="nonzero">
            <g id="player-sessions" transform="translate(438.000000, 264.000000)">
                <path d="M197.000387,53.8571429 C205.285665,53.8571429 212,50.6988076 212,46.8009849 C212,43.9303151 208.356606,39.7182775 203.127632,37.6957027 C201.492308,39.6850205 199.349116,41.0916973 197.000387,41.0916973 C194.651944,41.0916973 192.50863,39.6850205 190.872083,37.6957027 C185.644413,39.7182775 182,43.9303151 182,46.8009849 C182,50.6988076 188.715354,53.8571429 197.000387,53.8571429 L197.000387,53.8571429 Z M184.181356,45.208904 C184.533186,44.518981 185.069473,43.7815419 185.732238,43.0763961 C186.988536,41.7396877 188.623533,40.5756507 190.417627,39.7291625 C191.163814,40.4819044 191.961497,41.1063176 192.799749,41.5930031 C194.154758,42.3797252 195.568032,42.7786491 197.000387,42.7786491 C199.322124,42.7786491 201.622007,41.7049847 203.582047,39.7291625 C205.376589,40.5754901 207.011749,41.7395672 208.268088,43.0763559 C208.930731,43.7814617 209.466977,44.5188605 209.818726,45.2087836 C210.206192,45.9687554 210.287534,46.4941204 210.287534,46.8009849 C210.287534,47.3293623 210.035842,47.8772601 209.53939,48.4294959 C208.94545,49.0902187 208.022104,49.7261191 206.869248,50.268434 C205.618699,50.8566983 204.148832,51.3212526 202.500461,51.649164 C200.762553,51.9948685 198.91207,52.170191 197.000387,52.170191 C195.088745,52.170191 193.238222,51.9948685 191.500273,51.649164 C189.85182,51.3212526 188.381831,50.8566983 187.13116,50.268434 C185.978222,49.7260791 185.054713,49.0901785 184.460691,48.4294156 C183.964239,47.8772201 183.712466,47.3293221 183.712466,46.8009849 C183.712466,46.4941605 183.793808,45.9688357 184.181356,45.208904 Z M196.999898,38.7642276 C201.460705,38.7642276 205.076923,32.913076 205.076923,28.6750504 C205.076923,24.4367037 201.460705,21 196.999898,21 C192.539295,21 188.923077,24.4356997 188.923077,28.6750504 C188.923077,32.9142809 192.539295,38.7642276 196.999898,38.7642276 Z M190.629645,28.6750504 C190.629645,27.0879898 191.283789,25.5923791 192.471439,24.4638536 C193.677413,23.3178974 195.285651,22.6868243 196.999898,22.6868243 C198.714065,22.6868243 200.322384,23.3180581 201.52848,24.4641748 C202.716211,25.5928611 203.370355,27.0883112 203.370355,28.6750504 C203.370355,29.5242059 203.184501,30.4934069 202.832908,31.47795 C202.472619,32.4869119 201.952806,33.4692058 201.329624,34.3187227 C200.695512,35.1830997 199.966117,35.890843 199.220225,36.3653626 C198.477502,36.8378342 197.730513,37.0774034 196.999898,37.0774034 C196.269284,37.0774034 195.522295,36.8378743 194.779653,36.3654832 C194.033761,35.8910037 193.304366,35.183421 192.670376,34.3191646 C192.047194,33.4696879 191.527341,32.4873938 191.167092,31.4784721 C190.815499,30.4938486 190.629645,29.5244469 190.629645,28.6750504 L190.629645,28.6750504 Z" id="player_icon"></path>
            </g>
        </g>
    </g>
</svg>