<?xml version="1.0" encoding="UTF-8"?>
<svg width="141px" height="46px" viewBox="0 0 141 46" version="1.1" xmlns="http://www.w3.org/2000/svg" xmlns:xlink="http://www.w3.org/1999/xlink">
    <title>saved_icon</title>
    <g id="Page-1" stroke="none" stroke-width="1" fill="none" fill-rule="evenodd">
        <g id="Mass-Lottery-Exec-Dashboard" transform="translate(-870.000000, -215.000000)" fill="#FFFFFF" fill-rule="nonzero">
            <g id="we've-saved" transform="translate(690.000000, 174.000000)">
                <g id="saved_icon" transform="translate(181.000000, 42.000000)">
                    <path d="M88.5186503,41.9998415 L129.471828,41.9998415 C129.761756,41.9998415 129.996826,41.7650279 129.996826,41.4748435 C129.996826,41.184659 129.761756,40.9498454 129.471828,40.9498454 L109.005109,40.9498454 L109.005109,29.1214324 C109.759986,29.3960438 110.54399,29.5434432 111.347092,29.5434432 C115.146919,29.5434432 118.23846,26.4652322 118.23846,22.681555 C118.23846,22.3734263 118.215132,22.0606833 118.167708,21.7325596 C119.495328,20.2390837 120.223352,18.3359659 120.223352,16.3446649 C120.223352,13.0106199 118.194112,10.0426379 115.121797,8.8019199 C115.31175,8.16669283 115.40788,7.5165976 115.40788,6.86188816 C115.40788,3.07821101 112.316339,0 108.516512,0 C104.93663,0 101.986593,2.70907178 101.66257,6.225123 C99.2875183,7.36740382 97.7704587,9.75860578 97.7704587,12.4035909 C97.7704587,13.7201875 98.1457502,14.9896163 98.8589067,16.0960086 C98.1460065,17.3977371 97.7704587,18.8537863 97.7704587,20.3277797 C97.7704587,25.2168238 101.765622,29.1948117 106.676199,29.1948117 C107.095486,29.1948117 107.524098,29.1503996 107.955113,29.0859284 L107.955113,40.9498454 L88.5186503,40.9498454 C88.2287222,40.9498454 87.9936523,41.184659 87.9936523,41.4748435 C87.9936523,41.7650279 88.2287222,41.9998415 88.5186503,41.9998415 Z M106.676199,28.1448156 C102.344453,28.1448156 98.8204547,24.6379929 98.8204547,20.3277797 C98.8204547,18.9317157 99.2034367,17.5535959 99.9281288,16.3421014 C100.035282,16.1626587 100.026053,15.9370736 99.9045448,15.7668595 C99.1952336,14.7758232 98.8204547,13.6125219 98.8204547,12.4035909 C98.8204547,10.0718614 100.213699,7.97289474 102.370087,7.05671167 C102.555939,6.9777569 102.68001,6.79933958 102.689239,6.59733841 C102.829973,3.48682768 105.389595,1.04999604 108.516512,1.04999604 C111.737508,1.04999604 114.357884,3.65704185 114.357884,6.86188816 C114.357884,7.56171462 114.227147,8.25743952 113.969775,8.93009323 C113.918249,9.0639062 113.924145,9.21309998 113.985412,9.34229868 C114.046935,9.4720101 114.158702,9.57095994 114.294823,9.61607696 C117.212817,10.5835293 119.173356,13.2874743 119.173356,16.3446648 C119.173356,18.1534471 118.482246,19.8796856 117.227685,21.2044853 C117.113098,21.325481 117.062854,21.4936444 117.092078,21.6577062 C117.156933,22.0206931 117.188464,22.3554819 117.188464,22.6815549 C117.188464,25.8864012 114.568088,28.493447 111.347092,28.493447 C110.539888,28.493447 109.753353,28.3217909 109.005109,27.9941157 L109.005109,21.7999147 C112.661606,21.5306224 115.556048,18.4891972 115.556048,14.7809501 C115.556048,14.4907656 115.320978,14.2559521 115.03105,14.2559521 C114.741122,14.2559521 114.506052,14.4907656 114.506052,14.7809501 C114.506052,17.9104946 112.082519,20.4839589 109.005109,20.7499186 L109.005109,9.37306031 C109.005109,9.08287585 108.770039,8.84806229 108.480111,8.84806229 C108.190183,8.84806229 107.955113,9.08287585 107.955113,9.37306031 L107.955113,15.3390489 C106.205707,15.0846888 104.85665,13.5864386 104.85665,11.7765669 C104.85665,11.4863824 104.62158,11.2515688 104.331652,11.2515688 C104.041724,11.2515688 103.806654,11.4863824 103.806654,11.7765669 C103.806654,14.1661346 105.624601,16.1389787 107.955113,16.3999396 L107.955113,24.5653827 C104.877703,24.299423 102.454169,21.7259587 102.454169,18.5964142 C102.454169,18.3062297 102.219099,18.0714162 101.929171,18.0714162 C101.639243,18.0714162 101.404173,18.3062297 101.404173,18.5964142 C101.404173,22.3046613 104.298616,25.3460866 107.955113,25.6153788 L107.955113,28.0211604 C107.522752,28.0943794 107.093499,28.1448156 106.676199,28.1448156 Z" id="Shape" stroke="#FFFFFF" stroke-width="0.5"></path>
                    <path d="M137.234375,40.6035157 L128.611939,40.6035157 C128.757874,40.2774049 128.876648,39.9371339 128.95105,39.5791016 L130.614258,39.5791016 C132.417969,39.5791016 133.885742,38.0605469 133.885742,36.1933594 L133.885742,31.7939453 C133.885742,29.4072265 132.021484,27.4658203 129.729492,27.4658203 L126.709961,27.4658203 C126.617188,27.4658203 126.522461,27.3847656 126.473633,27.2636719 L124.974609,23.5644531 C124.097656,21.399414 122.078125,20 119.831055,20 L108.5,20 C106.272461,20 104.260742,21.3818359 103.374023,23.5195313 L102.053711,26.7070313 C101.862305,27.1679688 101.453125,27.4658204 101.009766,27.4658204 L101.004883,27.4658204 C98.7128906,27.4658204 96.8486328,29.4072267 96.8486328,31.7939454 L96.8486328,36.1933595 C96.8486328,38.060547 98.3164062,39.5791017 100.120117,39.5791017 L101.783325,39.5791017 C101.857727,39.9371339 101.976502,40.2774049 102.122437,40.6035158 L79.6118774,40.6035158 C79.7578735,40.277405 79.8766479,39.937134 79.9510498,39.5791017 L81.6147461,39.5791017 C83.418457,39.5791017 84.8857422,38.060547 84.8857422,36.1933595 L84.8857422,31.7939454 C84.8857422,29.4072266 83.0209961,27.4658204 80.7290039,27.4658204 L77.7094726,27.4658204 C77.6171874,27.4658204 77.5224609,27.3847657 77.4736328,27.263672 L75.9746094,23.5644532 C75.0976563,21.3994141 73.078125,20 70.8305664,20 L59.5,20 C57.2719727,20 55.2602539,21.381836 54.3745117,23.5195314 L53.0541992,26.7070314 C52.8632812,27.1679689 52.453125,27.4658205 52.0097656,27.4658205 C49.7133789,27.4658205 47.8486328,29.4072268 47.8486328,31.7939455 L47.8486328,36.1933596 C47.8486328,38.0605471 49.315918,39.5791018 51.1196289,39.5791018 L52.7828369,39.5791018 C52.8572388,39.937134 52.9760132,40.277405 53.1220093,40.6035159 L1.5,40.6035159 C0.6713867,40.6035159 0,41.2753909 0,42.1035159 C0,42.9316409 0.6713867,43.6035159 1.5,43.6035159 L57.7299805,43.6035159 L75.0043945,43.6035159 L106.729492,43.6035159 L124.003906,43.6035159 L137.234375,43.6035159 C138.0625,43.6035159 138.734375,42.9316409 138.734375,42.1035159 C138.734375,41.2753909 138.0625,40.6035157 137.234375,40.6035157 Z M53.0772095,36.5791017 L51.1196289,36.5791017 C50.9912109,36.5791017 50.8486328,36.4208985 50.8486328,36.1933594 L50.8486328,31.7939453 C50.8486328,31.0615234 51.3676758,30.4658203 52.0053711,30.4658203 C53.6708984,30.4658203 55.1689453,29.4414062 55.8261719,27.8544922 L57.1459961,24.6679688 C57.565918,23.6542969 58.4897461,23 59.5,23 L70.8305664,23 C71.8500977,23 72.777832,23.6640625 73.1943359,24.6914063 L74.6928711,28.3896485 C75.203125,29.6513673 76.387207,30.4658204 77.7094727,30.4658204 L80.729004,30.4658204 C81.3666993,30.4658204 81.8857423,31.0615235 81.8857423,31.7939454 L81.8857423,36.1933595 C81.8857423,36.4208986 81.7431642,36.5791017 81.6147462,36.5791017 L79.6566774,36.5791017 C78.886963,34.7694704 77.0916139,33.4970704 75.0043947,33.4970704 C72.9171755,33.4970704 71.1218263,34.7694703 70.352112,36.5791017 L62.3822634,36.5791017 C61.612549,34.7694704 59.8171999,33.4970704 57.7299807,33.4970704 C55.642395,33.4970703 53.8469238,34.7694702 53.0772095,36.5791017 Z M55.6762695,38.5498047 C55.6762695,37.4179688 56.5976562,36.4970703 57.7299804,36.4970703 C58.8623046,36.4970703 59.7832031,37.4179687 59.7832031,38.5498047 C59.7832031,39.6826172 58.8623047,40.6035156 57.7299804,40.6035156 C56.5976561,40.6035156 55.6762695,39.6826172 55.6762695,38.5498047 Z M62.3374634,40.6035157 C62.4834595,40.2774049 62.6022339,39.9371339 62.6766358,39.5791016 L70.0577393,39.5791016 C70.1321412,39.9371338 70.2509156,40.2774048 70.3969117,40.6035157 L62.3374634,40.6035157 Z M72.9511719,38.5498047 C72.9511719,37.4179688 73.8720703,36.4970703 75.0043946,36.4970703 C76.1367189,36.4970703 77.0576173,37.4179687 77.0576173,38.5498047 C77.0576173,39.6826172 76.1367189,40.6035156 75.0043946,40.6035156 C73.8720703,40.6035156 72.9511719,39.6826172 72.9511719,38.5498047 Z M102.077637,36.5791016 L100.120117,36.5791016 C99.9921875,36.5791016 99.8486328,36.4208985 99.8486328,36.1933594 L99.8486328,31.7939453 C99.8486328,31.0615234 100.367187,30.4658203 101.004883,30.4658203 C102.670898,30.4658203 104.167969,29.4414062 104.825195,27.8554687 L106.145508,24.6679687 C106.56543,23.6552734 107.490234,22.9999999 108.5,22.9999999 L119.831055,22.9999999 C120.850586,22.9999999 121.77832,23.6640624 122.194336,24.6914062 L123.693359,28.390625 C124.204102,29.6513672 125.387695,30.4658203 126.709961,30.4658203 L129.729492,30.4658203 C130.367188,30.4658203 130.885742,31.0615234 130.885742,31.7939453 L130.885742,36.1933594 C130.885742,36.4208985 130.742188,36.5791016 130.614258,36.5791016 L128.656738,36.5791016 C127.887207,34.7694703 126.091858,33.4970703 124.003906,33.4970703 C121.916687,33.4970703 120.121582,34.7694702 119.352051,36.5791016 L111.382324,36.5791016 C110.612793,34.7694703 108.817444,33.4970703 106.729492,33.4970703 C104.642273,33.4970703 102.847168,34.7694702 102.077637,36.5791016 Z M104.676758,38.5498047 C104.676758,37.4179688 105.597656,36.4970703 106.729492,36.4970703 C107.862305,36.4970703 108.783203,37.4179687 108.783203,38.5498047 C108.783203,39.6826172 107.862305,40.6035156 106.729492,40.6035156 C105.597656,40.6035156 104.676758,39.6826172 104.676758,38.5498047 Z M111.337524,40.6035157 C111.483459,40.2774049 111.602234,39.9371339 111.676636,39.5791016 L119.057739,39.5791016 C119.132141,39.9371338 119.250915,40.2774048 119.39685,40.6035157 L111.337524,40.6035157 Z M121.951172,38.5498047 C121.951172,37.4179688 122.87207,36.4970703 124.003906,36.4970703 C125.136719,36.4970703 126.057617,37.4179687 126.057617,38.5498047 C126.057617,39.6826172 125.136719,40.6035156 124.003906,40.6035156 C122.87207,40.6035156 121.951172,39.6826172 121.951172,38.5498047 Z" id="Shape" stroke="#22537D" stroke-width="1.5" transform="translate(69.367188, 31.801758) scale(-1, 1) translate(-69.367188, -31.801758) "></path>
                </g>
            </g>
        </g>
    </g>
</svg>