<?xml version="1.0" encoding="UTF-8"?>
<svg width="18px" height="20px" viewBox="0 0 18 20" version="1.1" xmlns="http://www.w3.org/2000/svg" xmlns:xlink="http://www.w3.org/1999/xlink">
    <title>verification-icon</title>
    <g id="Page-1" stroke="none" stroke-width="1" fill="none" fill-rule="evenodd">
        <g id="Mass-Lottery-System-Dashboard" transform="translate(-976.000000, -188.000000)" fill="#FFFFFF" fill-rule="nonzero">
            <g id="player-sessions-copy-4" transform="translate(860.000000, 179.000000)">
                <g id="verification-icon" transform="translate(116.000000, 9.000000)">
                    <path d="M15.8224588,4.07151442 C15.8224588,4.73901099 15.8224588,5.40650755 15.8224588,6.07400412 C15.8224588,7.02481113 15.8224588,7.97776442 15.8224588,8.92857143 C15.8224588,9.43724245 15.809581,9.94376717 15.743046,10.4502919 C15.7516312,10.392342 15.7580701,10.3365385 15.7666552,10.2785886 C15.6593407,11.0662775 15.4511504,11.8346497 15.1442308,12.566535 C15.1656937,12.515024 15.1871566,12.463513 15.2086195,12.4120021 C15.013307,12.8734547 14.7815076,13.317737 14.5132212,13.73841 C14.3822974,13.944454 14.2427885,14.1462054 14.0946944,14.3415179 C14.0667926,14.3780048 13.9873798,14.4702953 14.1183036,14.3136161 C14.098987,14.3393716 14.0796703,14.3629808 14.0582074,14.3887363 C14.0238668,14.4295158 13.9916724,14.4724416 13.9573317,14.5132212 C13.8757727,14.6119505 13.7920673,14.7085337 13.7062157,14.8051168 C13.3671016,15.1807177 12.9957933,15.521978 12.5987294,15.8396291 C12.5193166,15.9018716 12.6480941,15.8009959 12.6523867,15.7988496 C12.6266312,15.8203125 12.6008757,15.8374828 12.5751202,15.8589457 C12.5236092,15.897579 12.4699519,15.9362122 12.4184409,15.9748455 C12.3111264,16.052112 12.2038118,16.1250859 12.094351,16.1959135 C12.0042067,16.2538633 11.9140625,16.3118132 11.821772,16.3676168 C10.9267685,16.9127747 10.0317651,17.4557864 9.13676168,17.9987981 C8.80194025,18.2026957 8.46497253,18.4065934 8.1301511,18.6104911 C8.34692651,18.6104911 8.56370192,18.6104911 8.78047734,18.6104911 C7.98634959,18.1146978 7.19222184,17.6167582 6.3959478,17.120965 C6.01605426,16.8848729 5.63830701,16.6466346 5.25841346,16.4105426 C5.04163805,16.2753262 4.82700893,16.133671 4.62096497,15.9812843 C4.57803915,15.94909 4.53511332,15.9147493 4.49004121,15.8825549 C4.67247596,16.015625 4.48145604,15.8761161 4.44067651,15.8417754 C4.33980082,15.7602163 4.24107143,15.676511 4.14234203,15.5906593 C3.96419986,15.4339801 3.79249657,15.2687157 3.62723214,15.0991587 C3.43621223,14.9016999 3.25592376,14.6978022 3.08422047,14.4831731 C3.06705014,14.4617102 3.04987981,14.4423935 3.03485577,14.4209306 C2.93183379,14.2900069 3.10353709,14.5132212 3.03700206,14.4252232 C2.99836882,14.3737122 2.95973558,14.3222012 2.92324863,14.2706902 C2.84168956,14.1590831 2.76227679,14.0431834 2.68715659,13.9272837 C2.38882212,13.4722699 2.13126717,12.9893544 1.92093063,12.4892685 C1.94239354,12.5407795 1.96385646,12.5922905 1.98531937,12.6438015 C1.68269231,11.9183551 1.47450206,11.158568 1.36504121,10.3794643 C1.37362637,10.4374141 1.38006525,10.4932177 1.38865041,10.5511676 C1.27275069,9.68835852 1.30709135,8.80837912 1.30709135,7.93913118 C1.30709135,6.90247253 1.30709135,5.86581387 1.30709135,4.83130151 C1.30709135,4.58018544 1.30709135,4.32692308 1.30709135,4.07580701 C1.15041209,4.28185096 0.991586538,4.49004121 0.83490728,4.69608516 C3.04558723,4.23033997 5.19831731,3.47055288 7.14929602,2.31799451 C7.7137706,1.98531937 8.25678228,1.62044986 8.77833104,1.22553228 C8.67101648,1.25558036 8.56155563,1.28348214 8.45424107,1.31353022 C8.50575206,1.31353022 8.55940934,1.31353022 8.61092033,1.31353022 C8.50360577,1.28348214 8.39414492,1.25558036 8.28683036,1.22553228 C10.2485405,2.6614011 12.4914148,3.73025412 14.8458963,4.36126374 C15.3245192,4.49004121 15.809581,4.59306319 16.2967891,4.69393887 C16.6251717,4.7604739 17.0072115,4.59950206 17.0887706,4.24321772 C17.1617445,3.92127404 16.9921875,3.52421016 16.6380495,3.45123626 C15.2837397,3.1743647 13.9659169,2.79876374 12.6910199,2.26433723 C12.7425309,2.28580014 12.7940419,2.30726305 12.8455529,2.32872596 C11.7015797,1.84581044 10.6069712,1.25558036 9.57675137,0.562328297 C9.45226648,0.47862294 9.32992788,0.394917582 9.20758929,0.306919643 C9.01227679,0.169557005 8.85345124,0.0279017857 8.59589629,0.0214629121 C8.43707074,0.0171703297 8.26751374,0.0193166209 8.12800481,0.109460852 C7.99278846,0.1953125 7.86830357,0.30262706 7.73737981,0.394917582 C7.23514766,0.753348214 6.71574519,1.08173077 6.17917239,1.38435783 C5.58035714,1.72132555 4.96222527,2.02180632 4.33121566,2.29009272 C4.38272665,2.26862981 4.43423764,2.2471669 4.48574863,2.22570398 C3.1979739,2.76871566 1.85868819,3.16148695 0.491500687,3.44908997 C0.216775412,3.50703984 0.0193166209,3.79893544 0.0193166209,4.06936813 C0.0193166209,4.94290865 0.0193166209,5.81859547 0.0193166209,6.69213599 C0.0193166209,7.57426168 0.0171703297,8.45638736 0.0193166209,9.33636676 C0.0214629121,10.428829 0.206043956,11.5320227 0.579498626,12.5600962 C0.948660714,13.5752919 1.47450206,14.504636 2.14629121,15.3502747 C2.79232486,16.1637191 3.58430632,16.86341 4.45784684,17.4214457 C4.74330357,17.6038805 5.03305288,17.7820227 5.31850962,17.9601648 C6.23497596,18.5332246 7.15144231,19.104138 8.06576236,19.6771978 C8.08722527,19.6900755 8.1065419,19.7029533 8.12800481,19.715831 C8.31902473,19.8360234 8.58731113,19.8317308 8.77833104,19.715831 C9.60250687,19.2157452 10.4245364,18.7156593 11.2487122,18.2155735 C11.6393372,17.9794815 12.0299622,17.7412431 12.4205872,17.5051511 C13.1031078,17.0909169 13.7448489,16.6015625 14.3093235,16.0370879 C15.0390625,15.3073489 15.6571944,14.4509787 16.1122081,13.5237809 C16.5929773,12.5429258 16.8956044,11.5105598 17.0372596,10.428829 C17.1059409,9.90298764 17.1145261,9.37714629 17.1145261,8.84701236 C17.1145261,8.30400069 17.1145261,7.75884272 17.1145261,7.21583104 C17.1145261,6.18561126 17.1145261,5.15539148 17.1145261,4.1251717 C17.1145261,4.10585508 17.1145261,4.08439217 17.1145261,4.06507555 C17.1145261,3.72810783 16.8183379,3.40616415 16.4706387,3.42118819 C16.1165007,3.4426511 15.8224588,3.7109375 15.8224588,4.07151442 Z" id="Path"></path>
                    <path d="M4.45999313,9.96308379 C5.20690247,10.7099931 5.9559581,11.4590488 6.70286745,12.2059581 C6.80803571,12.3111264 6.91535027,12.4184409 7.02051854,12.5236092 C7.26734203,12.7704327 7.68372253,12.7704327 7.93054602,12.5236092 C8.46497253,11.9891827 8.99725275,11.4569025 9.53167926,10.922476 C10.3816106,10.0725446 11.2315419,9.22261332 12.0814732,8.37268201 C12.2767857,8.17736951 12.4720982,7.98205701 12.6674107,7.78674451 C12.905649,7.54850618 12.9228194,7.11066277 12.6674107,6.87671703 C12.4098558,6.640625 12.0106456,6.62130838 11.7573832,6.87671703 C11.2229567,7.41114354 10.6906765,7.94342376 10.15625,8.47785027 C9.30631868,9.32778159 8.45638736,10.1777129 7.60645604,11.0276442 C7.41114354,11.2229567 7.21583104,11.4182692 7.02051854,11.6135817 C7.3231456,11.6135817 7.62791896,11.6135817 7.93054602,11.6135817 C7.18363668,10.8666724 6.43458104,10.1176168 5.6876717,9.37070742 C5.58250343,9.26553915 5.47518887,9.15822459 5.3700206,9.05305632 C5.13178228,8.81481799 4.69393887,8.79764766 4.45999313,9.05305632 C4.2239011,9.30846497 4.20458448,9.70767514 4.45999313,9.96308379 L4.45999313,9.96308379 Z" id="Path"></path>
                </g>
            </g>
        </g>
    </g>
</svg>